<svg width="301" height="204" viewBox="0 0 301 204" fill="none" xmlns="http://www.w3.org/2000/svg">
<path d="M219.422 10.4054C216.486 3.7728 213.422 -3.14735 192.679 1.53332C181.541 4.04666 172.204 12.9265 164.572 26.1135C158.829 36.601 153.977 50.1626 150.107 66.4228C142.198 99.6485 138.866 142.628 140.424 184.416L136.972 184.508L136.927 183.248C135.873 153.073 137.352 122.334 141.254 95.0821C124.654 80.4869 105.733 68.9831 91.945 65.1623C59.2717 59.0677 50.6399 75.1693 50.854 89.5325C50.8932 92.1588 51.9781 94.3432 53.0711 96.5438C54.2013 98.8193 55.3401 101.112 55.3401 103.928C55.3401 105.796 50.4021 109.655 43.9833 114.67C31.364 124.531 13.0209 138.864 15.2225 151.338C17.2571 162.865 30.1596 171.618 42.0358 176.323C43.1985 176.784 44.4648 177.64 45.9885 178.67C47.0722 179.403 48.286 180.223 49.6853 181.052L49.7928 181.115C50.892 181.755 52.7062 182.659 55.2352 183.826L56.0154 184.184C91.7943 200.512 133.319 189.511 146.258 185.451L147.014 185.212L238.773 184.347L238.761 184.287C238.736 184.16 238.695 183.972 238.642 183.73C237.779 179.775 233.728 161.201 242.354 153.715C269.293 130.339 298.832 63.4413 258.67 35.4082C249.794 29.2132 240.987 25.4471 234.224 22.5548C230.116 20.7981 226.761 19.3637 224.603 17.9032C221.946 16.1046 220.696 13.2821 219.422 10.4054Z" fill="#57419D"/>
<path fill-rule="evenodd" clip-rule="evenodd" d="M56.922 85.2813C54.8999 84.984 58.4736 88.3762 58.4736 88.3762C58.4736 88.3762 58.9441 85.5786 56.922 85.2813Z" fill="white"/>
<path fill-rule="evenodd" clip-rule="evenodd" d="M87.1677 184.608C87.1677 184.608 65.4473 176.92 65.4473 166.217C65.4473 163.077 67.7691 163.378 72.4127 167.122C72.9178 167.529 73.6413 168.154 74.5832 168.997C75.1602 169.513 62.1245 156.122 68.693 153.617C75.0958 151.176 76.5852 163.852 76.9198 163.677C77.2919 163.482 77.1832 159.647 78.6651 157.951C79.4633 157.038 81.811 156.842 83.5874 157.951C92.9196 163.776 87.1677 184.608 87.1677 184.608Z" fill="white"/>
<path fill-rule="evenodd" clip-rule="evenodd" d="M77.8316 106.089C77.8316 106.089 68.7965 105.697 67.5649 103.266C66.3333 100.836 73.0333 102.217 73.0333 102.217L77.8316 106.089Z" fill="white"/>
<path fill-rule="evenodd" clip-rule="evenodd" d="M62.5513 94.5678C60.5285 93.6102 61.6789 91.3272 62.5513 91.2322C65.1337 90.951 67.1715 95.7921 67.4561 96.2768C67.9491 97.1162 63.5776 95.0536 62.5513 94.5678Z" fill="white"/>
<path fill-rule="evenodd" clip-rule="evenodd" d="M83.3511 109.242C83.3511 109.242 78.4043 98.5733 82.9838 99.414C87.5633 100.255 86.2459 112.658 86.2459 112.658L83.3511 109.242Z" fill="white"/>
<path fill-rule="evenodd" clip-rule="evenodd" d="M80.0298 101.471C80.0945 103.201 80.9686 105.856 82.6469 109.476C82.6698 109.525 82.6999 109.572 82.7364 109.615L85.6312 113.031C86.0397 113.513 86.9365 113.306 86.9992 112.715L87.0515 112.204C87.8653 103.934 86.6905 99.4398 83.1442 98.7887C81.081 98.4099 79.9545 99.4538 80.0298 101.471ZM82.8998 100.055C85.103 100.533 86.1275 103.991 85.6797 110.482L85.6517 110.859L84.0202 108.934L83.7349 108.308C82.3253 105.174 81.5957 102.871 81.5418 101.431L81.5376 101.229C81.5344 100.138 81.8886 99.8677 82.8234 100.039L82.8998 100.055Z" fill="#00160A"/>
<path fill-rule="evenodd" clip-rule="evenodd" d="M65.8817 152.971C62.6952 154.186 62.9158 157.251 65.3483 161.428L65.5352 161.743C65.9801 162.483 66.4878 163.248 67.0494 164.032L67.243 164.299L67.2189 164.286C66.3092 163.774 65.5244 163.474 64.8492 163.387C63.0561 163.154 62.1419 164.272 62.1419 166.217C62.1419 173.708 69.6196 180.039 84.3774 185.262C84.856 185.432 85.3997 185.197 85.5178 184.769C89.4211 170.633 88.1922 161.483 81.6187 157.38C79.6018 156.121 76.686 156.2 75.524 157.529L75.4232 157.65C74.9293 158.264 74.5846 159.072 74.3291 160.078L74.3179 160.122L74.285 160.012C74.1032 159.41 73.9113 158.842 73.6939 158.274C72.9736 156.388 72.1121 154.908 71.0315 153.917C69.6091 152.613 67.8409 152.223 65.8817 152.971ZM73.1006 161.96L73.4688 163.429L73.5115 163.581C73.5386 163.674 73.5633 163.748 73.5883 163.811C73.622 163.896 73.6571 163.966 73.7127 164.04C73.7819 164.133 73.8678 164.214 74.0045 164.284C74.2707 164.42 74.6124 164.428 74.8942 164.28C75.2567 164.091 75.3454 163.928 75.4446 163.392L75.491 163.124C75.5238 162.925 75.6437 162.083 75.664 161.949C75.7446 161.417 75.825 160.978 75.924 160.56C76.1562 159.578 76.4686 158.835 76.8728 158.373C77.4256 157.74 79.29 157.69 80.6228 158.522L80.7975 158.633C86.3417 162.246 87.5418 170.428 84.21 183.233L84.1071 183.624L83.7659 183.499C70.408 178.57 63.8193 172.794 63.8193 166.217C63.8193 165.022 64.0659 164.721 64.5947 164.789C65.5306 164.911 67.1655 165.86 69.3675 167.635L69.6489 167.866C69.9845 168.145 70.3968 168.5 70.885 168.931L71.5351 169.508C71.5463 169.517 71.563 169.53 71.5963 169.555L71.607 169.577C71.6328 169.612 71.7153 169.625 72.2652 169.712L72.4568 169.655C72.6835 169.582 72.7196 169.534 72.9122 169.278L72.9562 169.122C72.9829 169.02 72.979 168.996 72.9649 168.907L72.9283 168.781C72.9202 168.757 72.9141 168.744 72.904 168.726L72.8955 168.711C72.873 168.67 72.8601 168.649 72.8387 168.621L72.6106 168.361L72.0295 167.711C71.9296 167.597 71.8289 167.483 71.7176 167.355C70.7616 166.257 69.8345 165.123 68.9632 163.953C68.147 162.856 67.4346 161.799 66.8529 160.8C64.8005 157.277 64.6368 155.002 66.571 154.264C68.8988 153.376 70.686 155.015 72.0979 158.71C72.4817 159.714 72.7855 160.726 73.1006 161.96Z" fill="#00160A"/>
<path fill-rule="evenodd" clip-rule="evenodd" d="M68.4826 96.6679L69.1716 97.1985C77.7143 103.795 83.6621 109.059 86.8325 112.711C92.3663 119.086 96.826 125.699 100.584 132.701C101.92 135.189 103.129 137.653 104.32 140.269L104.645 140.986C105.016 141.813 105.376 142.628 105.767 143.533L107.435 147.425C111.945 157.872 110.452 158.381 106.158 148.22L104.471 144.279C104.118 143.461 103.794 142.721 103.469 141.99L103.224 141.444C101.938 138.582 100.643 135.921 99.2002 133.232C95.4834 126.308 91.0753 119.772 85.6074 113.472L85.3568 113.187C82.1087 109.528 76.0779 104.238 67.4609 97.6198C67.1502 97.3811 67.127 96.9745 67.4092 96.7117C67.6913 96.4488 68.1719 96.4292 68.4826 96.6679ZM48.4873 82.0966L59.1258 89.7783C60.1231 90.502 60.9004 91.069 61.2714 91.3457C61.5862 91.5804 61.6165 91.9867 61.339 92.253C61.0614 92.5194 60.5812 92.545 60.2664 92.3102L57.4978 90.2912C53.8212 87.6269 48.0166 83.4483 47.4989 83.0734C47.1801 82.8425 47.1429 82.4366 47.4158 82.1669C47.6887 81.8972 48.1685 81.8657 48.4873 82.0966Z" fill="#00160A"/>
<path fill-rule="evenodd" clip-rule="evenodd" d="M68.1489 101.165C66.7522 101.433 66.2817 102.358 66.8697 103.518C67.8507 105.454 71.4876 106.454 77.7927 106.728C78.4933 106.759 78.8612 106.036 78.3536 105.626L73.5553 101.754C73.4594 101.677 73.3411 101.622 73.2124 101.596C70.8722 101.113 69.2069 100.962 68.1489 101.165ZM72.6578 102.799L75.7865 105.323L75.5985 105.308L75.126 105.266C71.0982 104.884 68.8072 104.094 68.2601 103.014L68.2031 102.898C68.0358 102.543 68.0961 102.487 68.4835 102.413C69.1973 102.276 70.5337 102.384 72.4376 102.755L72.6578 102.799Z" fill="#00160A"/>
<path fill-rule="evenodd" clip-rule="evenodd" d="M63.7075 188.365C61.8027 189.292 62.5788 190.259 66.6865 191.801C71.1188 193.487 79.3679 196.742 93.5369 197.659C115.483 199.079 135.464 196.399 160.689 196.399C195.611 196.399 210.94 202.89 223.163 201.393C255.928 197.38 263.351 189.592 253.576 187.582C242.844 185.376 208.735 185.646 197.253 185.011L193.699 184.818L190.647 184.754C157.597 184.067 104.62 184.754 94.2742 184.754C73.1672 184.754 63.7075 188.365 63.7075 188.365Z" fill="white"/>
<path fill-rule="evenodd" clip-rule="evenodd" d="M160.689 196.399C195.611 196.399 210.94 203.114 223.163 201.617C255.928 197.604 263.351 189.592 253.576 187.582C242.844 185.376 203.861 184.659 194.261 184.835C194.261 184.835 238.391 191.733 236.03 194.018C228.999 200.82 211.491 192.6 179.692 192.84C173.141 192.889 160.689 196.399 160.689 196.399Z" fill="#E7EAEE"/>
<path fill-rule="evenodd" clip-rule="evenodd" d="M96.3691 185.045C95.5186 185.049 94.8361 185.051 94.2743 185.051L93.3109 185.053C79.5891 185.107 69.5806 186.327 63.2434 188.746L63.1444 188.789C61.6643 189.51 61.0971 190.572 62.0273 191.663C62.6287 192.368 63.888 193.034 66.0134 193.844L67.8201 194.527C70.0746 195.371 71.4116 195.829 73.4191 196.426L73.6368 196.491C79.4275 198.202 85.8533 199.371 93.4508 199.862C98.8492 200.212 104.351 200.332 110.381 200.261L112.493 200.229C116.458 200.16 119.836 200.043 126.007 199.762L136.674 199.263C146.838 198.797 153.039 198.611 160.361 198.606L160.689 198.606C173.792 198.606 184.496 199.449 196.367 201.094L197.398 201.239C199.187 201.502 209.025 202.968 211.742 203.298L211.836 203.31C216.576 203.874 220.084 203.987 223.325 203.59L224.231 203.477C238.948 201.617 249.583 198.846 254.953 195.78C260.319 192.717 259.833 189.207 254.02 187.944L253.843 187.907C249.015 186.914 239.852 186.363 225.613 186.002L222.693 185.932C221.842 185.913 220.962 185.894 220.037 185.874L207.642 185.632C202.868 185.532 199.941 185.446 197.726 185.332L193.771 185.118L190.675 185.051L187.528 184.991C178.401 184.83 167.499 184.753 155.021 184.746L151.311 184.746C142.615 184.751 133.616 184.787 123.567 184.851L96.3691 185.045ZM157.923 186.658C170.377 186.676 181.176 186.769 190.106 186.949L193.671 187.025L197.724 187.244C199.955 187.357 202.876 187.442 207.576 187.54L219.515 187.773C220.923 187.802 222.224 187.831 223.472 187.86L226.396 187.932C239.969 188.289 248.792 188.833 253.31 189.762L253.58 189.82C257.327 190.652 257.45 192.051 253.691 194.197C248.551 197.132 227.449 204.993 212.537 202.313L211.851 202.231C208.699 201.834 198.136 199.831 197.514 199.743L195.983 199.531C184.549 197.973 174.112 197.157 161.531 197.122L159.702 197.122C152.178 197.139 145.699 197.351 134.689 197.867L127.049 198.227C119.659 198.567 116.136 198.689 111.538 198.76L111.168 198.765C87.8525 199.531 73.6368 194.936 73.6368 194.936C71.7763 194.374 66.962 192.96 66.962 192.96L66.6036 192.821C55.3716 189.595 79.8946 187.015 93.3308 186.962L97.5193 186.948L121.851 186.771C133.179 186.697 143.152 186.656 152.799 186.655L157.923 186.658Z" fill="#00160A"/>
<path fill-rule="evenodd" clip-rule="evenodd" d="M209.738 171.267C209.738 171.267 209.679 174.097 210.709 175.407C211.738 176.716 214.61 180.359 217.281 181.318C218.104 181.613 221.245 181.651 223.132 182.583C226.924 184.457 227.768 187.833 223.132 188.548C213.929 189.968 210.709 185.864 210.709 185.864C210.709 185.864 206.917 181.318 203.117 178.303C199.318 175.288 196.29 174.38 196.29 174.38" fill="white"/>
<path d="M241.499 46.8454C240.218 46.764 239.465 47.5878 239.465 48.585C239.465 52.0371 246.132 56.758 250.476 56.758C251.749 56.758 252.791 55.9875 252.422 54.8097C252.282 54.3659 251.961 53.972 251.435 53.4866L251.319 53.3812C250.728 52.8499 250.116 52.3753 248.745 51.3771L246.644 49.8542C246.129 49.4769 245.309 48.8751 245.062 48.6959L244.763 48.4816C244.189 48.0721 243.745 47.7738 243.349 47.5368C242.648 47.1178 242.105 46.8839 241.499 46.8454Z" fill="white"/>
<path fill-rule="evenodd" clip-rule="evenodd" d="M198.909 114.529C198.909 114.529 196.385 108.435 189.897 106.784C187.835 106.26 196.853 117.773 188.894 122.067C186.41 123.408 181.993 124.103 176.557 124.758C152.327 127.675 145.022 120.027 130.065 116.292C124.068 114.794 94.8958 108.169 90.4852 141.917C87.7245 163.04 108.635 169.587 127.374 172.943C164.915 179.667 222.439 177.017 240.38 154.856C261.765 128.439 228.897 105.434 224.266 103.002C223.144 102.413 226.36 109.963 226.718 113.781C227.075 117.599 224.266 118.988 224.266 118.988C224.266 118.988 223.159 114.945 213.372 114.252C203.584 113.558 198.909 114.529 198.909 114.529Z" fill="white"/>
<path fill-rule="evenodd" clip-rule="evenodd" d="M54.9061 86.406C55.2491 87.0901 56.047 87.9963 57.3442 89.2277C58.2007 90.0407 59.7899 89.6347 59.9712 88.5565C60.3855 86.0932 59.5187 84.3642 57.181 84.0205C55.3511 83.7514 54.1695 84.9367 54.9061 86.406ZM58.4736 88.3762L58.2415 88.1542C56.0587 86.0473 55.6188 85.0897 56.9219 85.2813C58.27 85.4795 58.7872 86.5111 58.4736 88.3762Z" fill="#00160A"/>
<path fill-rule="evenodd" clip-rule="evenodd" d="M62.4548 90.5976C61.6044 90.6902 60.9113 91.5346 60.7203 92.4673C60.5007 93.5401 60.9724 94.5535 62.182 95.1261L63.016 95.5172C63.8205 95.89 64.5429 96.2102 65.2458 96.4959L65.5719 96.6261C66.0955 96.8309 66.5193 96.9742 66.8415 97.0492C67.1713 97.1258 67.4216 97.1478 67.6886 97.0652C68.2594 96.8888 68.3595 96.4328 68.1622 96.0446L68.0998 95.9267C68.021 95.7704 67.8262 95.3776 67.7142 95.1585L67.6899 95.1112C67.3846 94.5204 67.0733 93.9758 66.7305 93.4562C65.4612 91.5325 64.0963 90.4188 62.4548 90.5976ZM65.5656 94.322C65.7711 94.6483 65.967 94.9892 66.1598 95.3497L66.2233 95.4707L66.037 95.3974L65.9011 95.3425C65.0007 94.9764 64.049 94.5436 62.9207 94.0094C62.3113 93.7209 62.0944 93.2548 62.2109 92.6857C62.2616 92.4382 62.3763 92.1989 62.5201 92.0238C62.564 91.9702 62.6075 91.9267 62.6464 91.8952L62.6888 91.8638L62.6479 91.8668C63.4351 91.7811 64.4266 92.59 65.4096 94.0799L65.5656 94.322Z" fill="#00160A"/>
<path fill-rule="evenodd" clip-rule="evenodd" d="M75.3903 101.633C75.2558 101.137 67.7209 89.5212 73.0118 89.8861C78.3027 90.251 77.0427 103.416 76.8587 103.416C76.6418 103.416 75.4869 101.989 75.3903 101.633Z" fill="white"/>
<path fill-rule="evenodd" clip-rule="evenodd" d="M70.3741 91.6164C70.3743 92.7277 70.8125 94.1989 71.5987 95.9865C71.8348 96.5232 72.0992 97.0809 72.3899 97.6594L72.5674 98.0091C73.2657 99.3703 74.6653 101.821 74.6531 101.776C74.7283 102.053 75.0427 102.515 75.4572 103.022L75.6093 103.207C76.1164 103.816 76.3688 104.036 76.7963 104.055L76.9768 104.059C77.4901 104.082 77.4895 104.231 77.608 103.599L77.651 103.368C77.6687 103.274 77.687 103.15 77.7051 103.003L77.716 102.912C77.7635 102.502 77.806 101.966 77.835 101.38C77.9099 99.867 77.8886 98.247 77.7422 96.7358L77.7022 96.3522C77.2293 92.1151 75.855 89.4402 73.0732 89.2483C71.2954 89.1257 70.3738 90.0668 70.3741 91.6164ZM72.9503 90.5238C74.723 90.6461 75.862 92.9963 76.2345 96.8404C76.3754 98.2948 76.396 99.863 76.3236 101.327L76.2986 101.762L76.2716 101.723C76.1986 101.617 76.1482 101.537 76.1322 101.502L76.1275 101.49C76.0949 101.37 74.5772 98.7124 73.9551 97.4997C73.604 96.8151 73.2897 96.1615 73.0165 95.5403C72.2884 93.8847 71.887 92.5372 71.8868 91.6162C71.8867 90.7774 72.1407 90.4891 72.8703 90.5194L72.9503 90.5238Z" fill="#00160A"/>
<path fill-rule="evenodd" clip-rule="evenodd" d="M96.1833 125.231C96.1833 125.231 97.8403 123.283 98.7719 122.316C99.7035 121.349 100.702 120.539 100.702 120.539C100.702 120.539 78.2024 118.645 70.4086 113.737C60.2315 107.329 51.1023 96.7007 41.9065 94.4526C30.9132 91.7651 26.8445 97.9985 23.6737 98.5067C14.0142 100.055 -3.67705 104.461 4.41248 117.768C6.90995 121.877 15.0003 123.787 20.6999 121.497C27.062 118.94 34.8968 112.678 43.1368 112.678C52.6654 112.678 54.3245 119.281 66.4204 122.782C73.8445 124.931 96.1833 125.231 96.1833 125.231Z" fill="white"/>
<path fill-rule="evenodd" clip-rule="evenodd" d="M122.974 172.321C122.974 172.321 128.467 177.393 130.743 180.657C133.019 183.92 132.222 185.69 135.382 187.198C140.129 189.464 145.021 188.892 147.198 187.687C149.376 186.482 147.333 183.398 142.77 183.398C141.647 183.398 140.327 181.218 139.687 179.775C139.048 178.333 139.341 174.783 139.341 174.783L122.974 172.321Z" fill="white"/>
<path fill-rule="evenodd" clip-rule="evenodd" d="M225.285 104.279C225.285 104.279 261.075 141.414 210.744 163.211C175.545 178.456 117.713 170.225 117.713 170.225C117.713 170.225 180.67 184.543 221.817 167.281C248.073 156.267 253.266 137.545 240.74 118.484C237.462 113.496 225.285 104.279 225.285 104.279Z" fill="#E7EAEE"/>
<path fill-rule="evenodd" clip-rule="evenodd" d="M223.183 102.427C223.634 101.922 224.336 101.915 224.861 102.191C226.551 103.078 229.607 105.226 232.548 107.744C236.629 111.241 240.272 115.202 243.066 119.472C250.716 131.163 250.032 143.403 240.324 155.395C231.743 165.995 214.954 172.393 191.388 175.259C170.775 177.766 146.913 177.419 127.141 173.877L126.149 173.697C114.833 171.607 106.491 168.953 100.18 164.85C91.9015 159.468 88.0401 151.939 89.3636 141.812C91.3669 126.483 98.5306 117.964 109.33 114.98C113.344 113.871 117.644 113.598 122.081 113.968C125.124 114.222 127.679 114.701 130.384 115.377L130.865 115.498C133.804 116.252 136.305 117.084 140.162 118.53L143.013 119.611C148.922 121.851 152.341 122.914 156.768 123.669C162.337 124.619 168.47 124.731 175.911 123.87L177.015 123.737C183.088 122.988 186.348 122.308 188.287 121.262C190.557 120.037 191.367 118.052 191.043 115.304C190.895 114.053 190.528 112.734 189.949 111.197L189.789 110.782C189.539 110.154 188.808 108.389 188.674 108.005C188.507 107.53 188.431 107.199 188.458 106.891C188.526 106.119 189.327 105.643 190.222 105.87C194.954 107.074 198.353 110.571 200.44 116.239C200.626 116.742 200.294 117.278 199.699 117.434C199.104 117.591 198.471 117.31 198.286 116.807C196.697 112.492 194.376 109.685 191.338 108.314L191.138 108.227L191.96 110.254L191.982 110.312C194.068 117.837 192.519 123.737 178.488 125.561C177.716 125.661 162.202 126.791 155.76 125.442C146.001 123.399 132.151 115.775 123.848 115.498C115.545 115.221 113.719 115.775 110.03 116.795C100.132 119.53 91.8997 128.39 90.2383 143.023C89.361 150.75 94.2949 158.579 102.385 163.402C122.974 175.676 170.721 176.261 191.067 173.787C214.069 170.989 231.299 164.383 239.449 154.316C248.637 142.966 248.353 131.494 241.092 120.397C238.405 116.291 234.886 112.465 230.942 109.086C229.145 107.547 227.308 106.155 225.816 105.141L225.565 104.971L225.783 105.699L226.482 107.97L226.738 108.821C226.777 108.955 226.815 109.087 226.853 109.216L226.986 109.683C227.458 111.361 227.745 112.664 227.842 113.706C228.112 116.586 227.126 118.68 224.835 119.812C224.297 120.078 223.606 119.925 223.292 119.469C222.977 119.014 223.159 118.43 223.697 118.164C225.151 117.445 225.799 116.067 225.593 113.856C225.506 112.932 225.236 111.708 224.787 110.114L224.661 109.67C224.606 109.48 224.549 109.285 224.488 109.082L223.505 105.868C223.358 105.381 223.249 104.998 223.16 104.665L223.135 104.567C222.985 103.987 222.906 103.573 222.901 103.261C222.897 102.941 222.951 102.687 223.183 102.427Z" fill="#00160A"/>
<path fill-rule="evenodd" clip-rule="evenodd" d="M198.819 113.478L199.625 113.363C204.948 112.62 209.244 112.351 212.527 112.562C215.991 112.784 219.663 113.576 223.542 114.934C224.054 115.113 224.298 115.609 224.086 116.042C223.874 116.475 223.287 116.681 222.775 116.502C219.083 115.209 215.616 114.461 212.376 114.254C209.119 114.045 204.708 114.342 199.159 115.15C198.613 115.23 198.094 114.92 198 114.458C197.906 113.996 198.273 113.557 198.819 113.478Z" fill="#00160A"/>
<path fill-rule="evenodd" clip-rule="evenodd" d="M205.234 109.67C207.637 109.253 209.831 109.469 211.789 110.324C213.663 111.143 215.287 112.173 216.657 113.414C216.944 113.673 216.927 114.08 216.621 114.322C216.314 114.565 215.833 114.551 215.546 114.292C214.297 113.16 212.813 112.219 211.091 111.467C209.453 110.751 207.613 110.57 205.54 110.93C205.129 111.001 204.727 110.777 204.643 110.429C204.558 110.082 204.823 109.742 205.234 109.67Z" fill="#00160A"/>
<path fill-rule="evenodd" clip-rule="evenodd" d="M210.092 106.304C210.308 105.999 210.774 105.9 211.134 106.082C213.062 107.057 214.657 108.148 215.917 109.356C217.19 110.576 218.235 112.135 219.057 114.03C219.202 114.364 219 114.733 218.606 114.855C218.212 114.977 217.775 114.806 217.63 114.473C216.87 112.72 215.918 111.299 214.778 110.207C213.626 109.103 212.152 108.095 210.354 107.185C209.994 107.003 209.877 106.608 210.092 106.304Z" fill="#00160A"/>
<path fill-rule="evenodd" clip-rule="evenodd" d="M188.072 121.58C188.39 121.196 189.016 121.103 189.47 121.372C189.923 121.641 180.239 133.308 180.239 135.571C180.239 138.026 181.664 139.669 185.461 142.26L187.07 143.342L187.538 143.66C189.892 145.268 191.262 146.397 192.428 147.83C194.056 149.832 194.823 152.068 194.628 154.72C194.387 157.991 193.22 160.251 190.909 162.859L190.699 163.093C190.44 163.376 189.295 164.613 188.982 164.975C187.864 166.266 187.338 167.239 187.242 168.381C186.82 173.413 189.619 179.489 195.697 186.587C196.022 186.966 195.922 187.497 195.473 187.772C195.025 188.047 194.397 187.962 194.072 187.582C187.743 180.191 184.78 173.758 185.241 168.261C185.363 166.803 185.991 165.595 187.214 164.147L187.364 163.972C187.723 163.556 189.036 162.14 189.146 162.017C191.348 159.574 194.532 155.998 191.983 149.195C190.699 145.77 178.515 143.342 178.114 136.051C178.019 134.333 181.405 129.632 188.072 121.58Z" fill="#00160A"/>
<path d="M191.761 156.856L190.361 156.869C182.074 156.959 177.034 157.312 175.477 157.877L175.42 157.898C173.131 158.786 171.33 159.991 169.953 161.434C168.884 162.555 168.129 163.757 167.635 164.957C167.488 165.314 167.374 165.648 167.289 165.952L167.231 166.168L169.628 168.767C169.652 168.793 169.674 168.819 169.693 168.847L169.717 168.875L169.792 168.968C170.31 169.603 170.898 170.224 171.654 170.948L172.002 171.276C172.623 171.85 174.6 173.652 175.272 174.301C176.709 175.689 177.919 177.024 179.078 178.558C180.845 180.895 182.403 183.594 183.802 186.862L183.903 187.101L184.003 187.346C184.125 187.648 184.245 187.959 184.375 188.31L184.965 189.948C185.837 192.364 186.446 193.473 187.412 194.145L187.575 194.255C188.84 195.089 190.02 195.295 193.3 195.383L194.259 195.405C198.619 195.506 200.893 192.577 198.398 190.449C197.616 189.781 195.035 189.264 190.815 189.047C190.262 189.019 190.781 187.814 190.815 187.346C190.848 186.878 191.324 186.522 191.877 186.55C192.365 186.575 192.835 186.604 193.285 186.637C187.696 179.783 184.967 173.943 185.401 168.767C185.523 167.309 185.338 166.738 186.561 165.29L186.794 165.02C187.24 164.517 188.39 163.275 188.493 163.161C189.434 162.116 190.09 161.26 190.616 160.326L190.72 160.138L190.755 160.071L190.813 159.962C191.09 159.426 191.383 158.503 191.681 157.209L191.761 156.856Z" fill="white"/>
<path fill-rule="evenodd" clip-rule="evenodd" d="M168.203 165.184C168.993 167.134 170.372 168.325 172.291 170.167L172.561 170.423C173.041 170.869 175.214 172.849 175.925 173.536C177.362 174.924 178.572 176.259 179.731 177.792C181.498 180.129 183.056 182.828 184.455 186.096C184.523 186.254 184.589 186.415 184.656 186.58L184.839 187.044C184.88 187.151 184.922 187.26 184.964 187.372L185.203 188.024C185.325 188.362 185.573 189.056 185.619 189.183L185.751 189.544C186.554 191.711 187.149 192.742 188.066 193.38L188.228 193.49C189.44 194.288 190.573 194.511 193.546 194.605L194.912 194.64C199.272 194.741 201.546 191.812 199.052 189.684C198.269 189.016 195.689 188.499 191.468 188.282C190.915 188.253 190.494 187.851 190.528 187.383C190.561 186.916 191.037 186.56 191.59 186.588L192.116 186.617C196.524 186.875 199.264 187.454 200.476 188.489C204.381 191.82 200.904 196.382 195.036 196.339L194.33 196.324C190.14 196.229 188.638 195.975 186.792 194.69C185.474 193.774 184.759 192.542 183.84 190.06L183.244 188.407L183.053 187.888C182.971 187.671 182.894 187.469 182.816 187.274L182.758 187.129C182.695 186.973 182.632 186.822 182.569 186.674C181.22 183.522 179.727 180.936 178.041 178.706C177.025 177.362 175.967 176.178 174.729 174.959L174.416 174.654C173.692 173.954 171.333 171.808 171.005 171.498C168.866 169.475 167.588 167.841 166.676 165.688L166.583 165.463C164.808 161.085 162.531 159.591 159.555 160.524C159.036 160.687 153.223 163.046 158.853 159.879C164.483 156.712 168.203 165.184 168.203 165.184Z" fill="#00160A"/>
<path fill-rule="evenodd" clip-rule="evenodd" d="M203.206 135.039C202.113 135.039 200.544 132.383 200.544 131.085C200.544 129.788 204.469 130.227 204.469 130.227C204.469 130.227 208.591 130.694 208.022 131.999C207.454 133.304 203.813 135.039 203.206 135.039Z" fill="#FFB61D"/>
<ellipse cx="196.744" cy="125.485" rx="2.16464" ry="3.42093" fill="#00160A"/>
<ellipse cx="217.446" cy="126.258" rx="2.37231" ry="3.36734" fill="#00160A"/>
<path fill-rule="evenodd" clip-rule="evenodd" d="M215.898 131.912C217.705 131.255 219.705 131.131 221.876 131.532C223.999 131.924 230.396 135.31 230.172 135.611C229.948 135.911 223.471 133.143 221.552 132.788C219.68 132.442 218.002 132.546 216.498 133.093C216.112 133.233 215.665 133.082 215.5 132.756C215.334 132.43 215.512 132.052 215.898 131.912Z" fill="#00160A"/>
<path fill-rule="evenodd" clip-rule="evenodd" d="M217.049 134.134C218.946 134.219 219.44 133.853 222.038 135.279C224.637 136.706 226.579 140.067 226.223 140.256C225.868 140.444 223.794 137.447 221.415 135.938C219.035 134.429 216.228 135.096 216.25 134.742C216.271 134.407 216.591 134.145 216.98 134.133L217.049 134.134Z" fill="#00160A"/>
<path fill-rule="evenodd" clip-rule="evenodd" d="M203.877 136.431C203.349 139.202 203.482 140.966 203.679 142.934C203.877 144.902 205.736 147.736 205.923 148.92C206.109 150.105 202.405 145.221 202.181 143.15C201.957 141.079 200.369 135.451 203.142 135.713C203.142 135.713 203.935 136.124 203.877 136.431Z" fill="#00160A"/>
<path fill-rule="evenodd" clip-rule="evenodd" d="M190.073 132.25C191.757 132.25 192.44 132.286 194.08 132.559C194.492 132.627 194.76 132.965 194.679 133.313C194.598 133.662 194.198 133.889 193.786 133.82C193.203 133.723 192.083 133.31 190.227 133.326C187.689 133.349 185.481 134.54 185.371 134.343C185.191 134.022 188.388 132.25 190.073 132.25Z" fill="#00160A"/>
<path fill-rule="evenodd" clip-rule="evenodd" d="M192.828 129.49C193.236 129.572 193.489 129.918 193.393 130.263C193.296 130.609 192.887 130.823 192.479 130.741C188.83 130.013 185.902 130.033 183.837 129.965C181.806 129.898 177.25 130.167 177.117 129.83C176.983 129.493 189.092 128.745 192.828 129.49Z" fill="#00160A"/>
<path fill-rule="evenodd" clip-rule="evenodd" d="M209.756 170.419C210.31 170.427 210.751 170.814 210.741 171.282C210.705 173.013 210.991 174.234 211.544 174.937C213.862 177.886 215.829 179.875 217.673 180.537C217.723 180.555 217.843 180.58 218.029 180.611L218.306 180.653C218.513 180.682 219.389 180.794 219.542 180.815C220.118 180.892 220.594 180.966 221.058 181.055C222.082 181.251 222.933 181.502 223.638 181.851C225.758 182.898 227.156 184.43 227.293 185.936C227.45 187.676 225.955 188.975 223.312 189.383C216.823 190.384 212.282 189.403 209.889 186.353C207.399 183.367 204.912 180.89 202.431 178.921C199.99 176.985 197.824 175.74 195.955 175.179C195.433 175.023 195.16 174.538 195.345 174.096C195.53 173.654 196.103 173.423 196.625 173.58C198.793 174.23 201.178 175.6 203.804 177.684C206.39 179.736 208.964 182.299 211.544 185.395C213.43 187.797 217.17 188.605 222.952 187.713C224.667 187.449 225.363 186.844 225.292 186.065C225.213 185.187 224.226 184.107 222.626 183.316C222.126 183.069 221.455 182.871 220.614 182.71C220.252 182.64 219.873 182.58 219.425 182.518L217.975 182.327L217.695 182.285C217.348 182.23 217.101 182.175 216.889 182.099C215.51 181.604 214.093 180.539 212.61 179.038C211.632 178.049 210.881 177.158 209.873 175.877C209.053 174.833 208.692 173.295 208.735 171.252C208.745 170.784 209.202 170.411 209.756 170.419Z" fill="#00160A"/>
<path fill-rule="evenodd" clip-rule="evenodd" d="M217.857 186.073C217.956 185.793 218.306 185.633 218.637 185.717C219.67 185.978 220.401 186.266 220.847 186.609C221.27 186.934 221.688 187.433 222.116 188.11C222.279 188.369 222.164 188.69 221.859 188.828C221.553 188.966 221.173 188.869 221.01 188.611C220.644 188.031 220.303 187.624 220.004 187.394C219.728 187.182 219.147 186.953 218.279 186.733C217.947 186.649 217.758 186.354 217.857 186.073Z" fill="#00160A"/>
<path fill-rule="evenodd" clip-rule="evenodd" d="M221.128 184.951C221.237 184.673 221.592 184.523 221.921 184.615C222.805 184.864 223.463 185.148 223.899 185.484C224.333 185.817 224.748 186.355 225.169 187.104C225.318 187.369 225.184 187.685 224.872 187.811C224.559 187.937 224.185 187.824 224.036 187.559C223.68 186.923 223.345 186.491 223.056 186.269C222.771 186.049 222.258 185.828 221.525 185.622C221.197 185.529 221.019 185.229 221.128 184.951Z" fill="#00160A"/>
<path fill-rule="evenodd" clip-rule="evenodd" d="M194.29 192.259C194.399 191.981 194.754 191.831 195.083 191.923C195.967 192.172 196.625 192.456 197.061 192.792C197.494 193.125 197.91 193.663 198.331 194.413C198.479 194.677 198.346 194.994 198.033 195.119C197.721 195.245 197.347 195.132 197.198 194.868C196.841 194.232 196.507 193.799 196.218 193.577C195.933 193.358 195.42 193.136 194.687 192.93C194.358 192.837 194.181 192.537 194.29 192.259Z" fill="#00160A"/>
<path fill-rule="evenodd" clip-rule="evenodd" d="M196.114 190.459C196.223 190.181 196.578 190.031 196.907 190.123C197.791 190.372 198.448 190.656 198.885 190.992C199.318 191.325 199.734 191.863 200.155 192.613C200.303 192.877 200.17 193.194 199.857 193.319C199.544 193.445 199.171 193.332 199.022 193.068C198.665 192.432 198.331 191.999 198.042 191.777C197.757 191.558 197.244 191.336 196.511 191.13C196.182 191.037 196.004 190.737 196.114 190.459Z" fill="#00160A"/>
<path fill-rule="evenodd" clip-rule="evenodd" d="M122.297 171.695C122.705 171.379 129.629 178.096 131.114 180.225C131.593 180.911 131.97 181.572 132.306 182.279C132.41 182.496 132.506 182.712 132.61 182.955L133.004 183.896C133.588 185.269 134.559 185.831 135.875 186.459C139.736 188.302 144.296 188.28 146.649 186.977C147.954 186.255 146.192 184.247 142.77 184.247C141.17 184.247 139.794 182.433 138.748 180.073C138.258 178.968 138.136 177.203 138.34 174.724C138.379 174.256 138.858 173.903 139.41 173.936C139.963 173.969 140.38 174.374 140.341 174.842C140.156 177.096 140.264 178.66 140.627 179.477L140.732 179.708C141.437 181.203 142.473 182.55 142.77 182.55C145.181 182.55 147.22 183.336 148.317 184.585C149.477 185.907 149.324 187.525 147.748 188.397C144.749 190.057 139.386 190.083 134.889 187.937C133.151 187.107 132.389 186.248 131.677 184.624L131.294 183.713C131.166 183.408 131.056 183.16 130.938 182.912C130.638 182.281 130.304 181.697 129.88 181.088C128.404 178.972 125.854 176.236 122.235 172.894C121.861 172.549 121.888 172.012 122.297 171.695Z" fill="#00160A"/>
<path fill-rule="evenodd" clip-rule="evenodd" d="M140.871 186.073C140.97 185.793 141.319 185.633 141.651 185.717C142.684 185.978 143.415 186.266 143.861 186.609C144.284 186.934 144.701 187.433 145.13 188.11C145.293 188.369 145.178 188.69 144.872 188.828C144.567 188.966 144.187 188.869 144.024 188.611C143.658 188.031 143.317 187.624 143.018 187.394C142.742 187.182 142.161 186.953 141.292 186.733C140.961 186.649 140.772 186.354 140.871 186.073Z" fill="#00160A"/>
<path fill-rule="evenodd" clip-rule="evenodd" d="M143.23 185.208C143.339 184.93 143.694 184.78 144.023 184.872C144.907 185.121 145.565 185.405 146.001 185.741C146.434 186.074 146.85 186.612 147.271 187.362C147.419 187.626 147.286 187.942 146.973 188.068C146.661 188.194 146.287 188.081 146.138 187.816C145.781 187.181 145.447 186.748 145.158 186.526C144.873 186.307 144.36 186.085 143.627 185.879C143.298 185.786 143.121 185.486 143.23 185.208Z" fill="#00160A"/>
<path fill-rule="evenodd" clip-rule="evenodd" d="M27.6013 95.4585L27.3893 95.5822C26.7182 95.9789 25.4256 96.7767 25.1409 96.946L25.1117 96.9632C24.3743 97.393 23.8762 97.6107 23.4869 97.6731C16.6097 98.7754 10.6702 100.009 6.60452 102.613C0.919558 106.254 -2.15135 112.621 1.74389 119.029C4.5157 123.589 14.9943 124.729 21.1303 122.263C22.1801 121.841 23.2984 121.313 24.6475 120.615L25.2083 120.322C25.4024 120.22 25.602 120.114 25.8145 120L27.2835 119.207L28.8897 118.337L29.4776 118.022C35.3832 114.884 39.1353 113.526 43.1368 113.526C46.4443 113.526 48.7719 114.294 51.696 116.109L51.9164 116.247C52.4242 116.568 55.7194 118.792 56.832 119.477C59.715 121.253 62.5615 122.562 66.0957 123.585L66.4064 123.673C71.5785 125.089 81.4716 125.882 96.1673 126.08C96.4956 126.084 96.8056 125.952 96.9974 125.727L97.5701 125.058C98.3932 124.103 99.0538 123.367 99.5496 122.852C100.145 122.234 100.761 121.667 101.396 121.152C102.014 120.65 101.654 119.767 100.801 119.695L99.9174 119.619C85.5735 118.356 75.9177 116.149 71.0075 113.057L70.6495 112.83C68.0308 111.155 65.5298 109.264 61.7175 106.17L56.7909 102.166C54.843 100.596 54.1584 100.086 52.7938 99.1054L52.5801 98.952C49.3898 96.6633 46.6218 95.0943 43.9368 94.1582C43.3475 93.9527 42.764 93.779 42.185 93.6374C36.2061 92.1758 31.9138 92.9879 27.6013 95.4585ZM41.6281 95.2677C42.1351 95.3917 42.6495 95.5449 43.1724 95.7272C45.5516 96.5567 48.07 97.9675 50.9893 100.037L52.1317 100.859C53.3892 101.773 54.2598 102.458 57.1578 104.814L60.5945 107.61C64.4866 110.762 67.0359 112.672 69.8096 114.418L69.9725 114.519C75.0116 117.616 84.1651 119.792 97.4805 121.099L98.5696 121.203L98.5546 121.218C98.4287 121.34 98.3038 121.464 98.1797 121.59L97.9061 121.872L97.6968 122.094C97.2994 122.519 96.8267 123.047 96.2779 123.678L95.6758 124.375L94.4569 124.356C80.634 124.119 71.3711 123.318 66.7451 121.98C63.5422 121.052 60.9487 119.88 58.3275 118.297L58.0128 118.105C56.9449 117.447 53.6627 115.233 53.117 114.888C49.7689 112.772 47.0115 111.829 43.1368 111.829C38.6449 111.829 34.6291 113.28 28.4205 116.58L27.4663 117.092L25.4202 118.201C24.813 118.529 24.333 118.785 23.8665 119.029L23.3483 119.297C22.1677 119.902 21.1818 120.364 20.2695 120.73C15.0679 122.821 7.55522 121.083 5.30446 117.38C1.86188 111.717 3.07318 107.555 7.99264 104.404C11.7508 101.997 17.2632 100.398 23.8604 99.3404C24.5509 99.2297 25.2164 98.9502 26.0846 98.4559L26.2498 98.3607C26.5072 98.2107 28.0682 97.2459 28.664 96.8995L28.7261 96.8636C32.5778 94.6571 36.2714 93.9582 41.6281 95.2677Z" fill="#00160A"/>
<path fill-rule="evenodd" clip-rule="evenodd" d="M281.849 118.329L281.755 118.523L281.565 118.925C279.097 124.22 276.92 132.332 275.018 143.281L274.907 143.925L274.901 143.893C274.165 140.221 273.235 137.369 272.103 135.325C270.137 131.775 267.335 130.434 264.025 131.708C253.281 135.843 253.922 152.654 265.3 182.199C265.451 182.592 265.884 182.857 266.372 182.857H278.724C279.055 182.857 279.37 182.734 279.584 182.52C295.008 167.131 301.915 156.785 300.227 151.101L300.172 150.92C298.635 146.03 294.793 144.983 289.313 147.61L289.119 147.705L289.392 147.173C298.897 128.544 300.642 117.074 294.219 112.604C289.503 109.322 285.2 111.493 281.849 118.329ZM292.969 113.341C298.623 117.276 296.614 130.164 285.887 150.138C285.397 151.051 298.038 143.893 298.038 151.566L298.078 151.712C299.295 156.435 293.014 165.969 279.165 179.978L278.2 180.948L266.372 181.661C266.372 181.661 250.427 137.123 264.959 133.446C269.141 132.388 272.226 137.526 273.756 151.422C273.882 152.56 275.835 152.584 276 151.45L276.134 150.534C278.332 135.671 280.94 125.168 283.934 119.06L284.105 118.716C286.902 113.178 289.809 111.142 292.969 113.341Z" fill="#00160A"/>
<path d="M292.785 114.078C298.439 118.013 296.148 130.064 285.422 150.038C284.932 150.951 286.225 151.804 287.153 151.179L287.529 150.928C293.623 146.915 296.748 147.222 298.038 151.566L298.078 151.712C299.295 156.435 293.014 165.969 279.165 179.978L278.2 180.948H267.192L266.798 179.908C256.421 152.394 256.011 136.89 264.959 133.446C269.087 131.858 272.226 137.526 273.756 151.422C273.882 152.56 275.835 152.584 276 151.45L276.134 150.534C278.332 135.671 280.941 125.168 283.934 119.06L284.105 118.716C286.902 113.178 289.626 111.879 292.785 114.078Z" fill="white"/>
<ellipse cx="263.38" cy="145.618" rx="4.01215" ry="3.39407" fill="#E7EAEE"/>
<ellipse cx="288.456" cy="123.556" rx="4.01215" ry="3.39408" fill="#E7EAEE"/>
<ellipse cx="290.462" cy="156.224" rx="4.01218" ry="3.39407" fill="#E7EAEE"/>
<path fill-rule="evenodd" clip-rule="evenodd" d="M77.807 185.216C70.7249 185.31 46.3703 186.837 45.9495 186.072C45.4113 185.094 71.9699 183.809 77.759 183.731L79.5724 183.71C84.8361 183.662 77.807 185.216 77.807 185.216ZM181.984 183.229C182.607 183.216 183.125 183.632 183.141 184.159C183.158 184.686 182.666 185.124 182.043 185.138L171.963 185.349C165.689 185.471 158.417 185.597 147.672 185.776C147.049 185.786 146.534 185.367 146.521 184.84C146.509 184.313 147.004 183.877 147.627 183.867L166.655 183.539C172.432 183.433 177.073 183.339 181.984 183.229ZM207.983 182.785C208.606 182.776 209.119 183.197 209.129 183.724C209.139 184.251 208.641 184.685 208.018 184.694L205.374 184.721L197.284 184.768C195.59 184.783 194.264 184.802 192.7 184.835C192.077 184.848 191.56 184.431 191.545 183.904C191.529 183.377 192.022 182.939 192.645 182.926L194.635 182.89C195.938 182.87 197.262 182.857 199.021 182.846L205.749 182.809C206.531 182.802 207.239 182.795 207.983 182.785ZM281.114 180.948C281.114 180.948 283.14 180.653 297.931 181.589C298.553 181.629 299.019 182.087 298.972 182.613C298.926 183.138 291.612 182.873 281.612 182.858L278.862 182.862C271.52 182.889 264.699 183.057 253.379 183.452L239.09 183.962C232.993 184.173 229.355 184.276 224.932 184.365C224.309 184.377 223.792 183.96 223.777 183.433C223.763 182.906 224.256 182.468 224.879 182.456L228.431 182.377C232.656 182.274 236.999 182.13 244.697 181.852L252.861 181.559C265.625 181.112 272.723 180.948 281.114 180.948Z" fill="#00160A"/>
<path d="M246.923 43.5374L247.181 43.1352C249.205 40.0349 250.967 38.4957 253.023 38.9979C253.189 39.0386 253.353 39.0942 253.513 39.1643C254.772 39.7167 255.075 40.7438 254.721 42.1455L254.698 42.2319L254.758 42.1598C255.355 41.4426 255.924 40.8887 256.514 40.4776L256.641 40.3917C257.953 39.5277 259.345 39.4474 260.605 40.3475C262.618 41.7849 262.39 44.1958 260.747 45.6796L260.656 45.7596C260.427 45.955 260.29 46.3777 260.136 47.3727L260.003 48.2445C259.844 49.2503 259.737 49.6915 259.486 50.3729C259.013 51.6598 258.236 52.7333 257.027 53.6101C255.506 54.7122 252.941 54.5584 249.327 53.3022C248.939 53.1672 248.754 52.7916 248.913 52.4632C249.073 52.1348 243.845 48.2343 243.686 48.4053L243.635 48.455C243.345 48.7111 242.863 48.7192 242.561 48.4733L241.826 47.8746C241.384 47.5137 241.605 46.8812 242.208 46.7811C243.312 46.5977 244.169 46.3954 244.771 46.1794C245.277 45.998 245.553 45.8245 245.619 45.7119C245.619 45.7119 246.716 43.8624 246.923 43.5374Z" fill="white"/>
<path fill-rule="evenodd" clip-rule="evenodd" d="M241.499 46.8454C240.218 46.764 239.465 47.5878 239.465 48.585C239.465 52.0371 246.132 56.758 250.476 56.758C251.75 56.758 252.792 55.9875 252.422 54.8097C252.282 54.3659 251.961 53.972 251.435 53.4866L251.319 53.3812C250.728 52.8499 250.116 52.3753 248.745 51.3771L246.644 49.8542C246.129 49.4769 245.309 48.8751 245.062 48.6959L244.763 48.4816C244.189 48.0721 243.745 47.7738 243.349 47.5368C242.648 47.1178 242.105 46.8839 241.499 46.8454ZM240.985 48.5851C240.985 47.2354 243.271 49.1014 246.022 51.0982L247.85 52.421C250.087 54.0529 252.818 55.7505 251.435 55.8751C247.053 56.2696 240.985 51.3545 240.985 48.5851Z" fill="#00160A"/>
<path fill-rule="evenodd" clip-rule="evenodd" d="M241.85 37.7988C242.164 37.5633 243.733 36.6367 242.923 37.8534C242.112 39.0702 237.428 40.6134 242.112 46.7666C242.291 47.0006 242.073 47.4702 241.683 47.6C241.292 47.7297 240.851 47.567 240.698 47.2365C239.513 44.6849 238.966 42.8377 239.07 41.6369C239.182 40.3644 240.126 39.0916 241.85 37.7988Z" fill="#00160A"/>
<path fill-rule="evenodd" clip-rule="evenodd" d="M235.998 39.9409C236.08 39.5928 236.892 38.7313 236.892 39.437C236.892 40.1427 235.699 41.9326 237.378 43.9495C239.058 45.9665 241.948 47.3344 241.7 47.6214C241.453 47.9084 240.978 47.9715 240.639 47.7625C238.207 46.264 236.731 45.0917 236.174 44.1728C235.594 43.214 235.554 41.811 235.998 39.9409Z" fill="#00160A"/>
<path fill-rule="evenodd" clip-rule="evenodd" d="M246.923 43.5374L247.181 43.1352C249.205 40.0349 250.967 38.4957 253.023 38.9979C253.189 39.0386 253.353 39.0942 253.513 39.1643C254.772 39.7167 255.075 40.7438 254.721 42.1455L254.698 42.2319L254.758 42.1598C255.355 41.4426 255.924 40.8887 256.514 40.4776L256.641 40.3917C257.953 39.5277 259.345 39.4474 260.605 40.3475C262.618 41.7849 262.39 44.1958 260.747 45.6796L260.656 45.7596C260.427 45.955 260.29 46.3777 260.136 47.3727L260.003 48.2445C259.844 49.2503 259.737 49.6915 259.486 50.3729C259.013 51.6598 258.236 52.7333 257.027 53.6101C255.506 54.7122 252.941 54.5584 249.327 53.3022C248.939 53.1672 248.754 52.7916 248.913 52.4632C249.073 52.1348 254.544 54.8243 256.641 52.7334C258.737 50.6426 258.964 46.3175 259.568 45.0067L259.715 44.7782C260.874 43.7866 260.913 42.2497 259.625 41.33C258.961 40.8555 258.358 40.8903 257.574 41.4064C256.86 41.8766 256.116 42.6838 255.258 43.8585L255.007 44.2089C254.584 44.8114 253.739 46.0607 253.627 46.2194L253.472 46.4358C252.951 47.1553 252.288 47.6059 252.189 47.6253C252.091 47.6446 251.951 47.5777 251.917 46.9691C251.905 46.7689 251.965 46.5675 252.091 46.2935L252.141 46.1873C252.294 45.8734 253.133 44.3979 253.191 44.2921C253.446 43.8274 253.651 43.4223 253.82 43.0404C254.503 41.5005 253.487 40.6011 252.813 40.3058C252.741 40.2741 252.67 40.2501 252.601 40.2332C251.557 39.9781 250.105 41.2889 248.409 43.9152L248.042 44.4963C247.77 44.9347 247.504 45.3855 246.981 46.2811C246.601 46.9324 245.587 47.3992 243.896 47.7758L243.803 47.7956L243.811 47.8143C243.886 48.0119 243.845 48.2343 243.686 48.4053L243.635 48.455C243.345 48.7111 242.863 48.7192 242.561 48.4733L241.826 47.8746C241.384 47.5137 241.605 46.8812 242.208 46.7811C243.312 46.5977 244.169 46.3954 244.771 46.1794C245.277 45.998 245.553 45.8245 245.619 45.7119L246.329 44.5031C246.547 44.1373 246.716 43.8624 246.923 43.5374Z" fill="#00160A"/>
<ellipse cx="256.894" cy="45.5036" rx="1.72667" ry="1.19753" fill="#FFB61D"/>
<ellipse cx="251.961" cy="42.165" rx="1.72668" ry="1.19753" fill="#FFB61D"/>
<path fill-rule="evenodd" clip-rule="evenodd" d="M241.346 50.5643C241.105 50.3835 240.804 50.0574 240.539 49.7044L240.197 49.8329L239.793 49.9794C239.711 50.0108 239.659 50.0354 239.643 50.0554C239.596 50.1288 239.489 50.1567 239.401 50.1177C239.316 50.0789 239.281 49.9879 239.328 49.9147C239.36 49.8451 239.587 49.6268 240.009 49.4132C240.085 49.3745 240.169 49.3385 240.26 49.3034C240.105 49.0574 239.982 48.8197 239.925 48.6291C239.838 48.348 239.907 48.1489 240.022 48.0789C240.133 48.0096 240.414 47.9967 240.841 48.2965C240.919 48.3471 240.932 48.4416 240.872 48.5073C240.812 48.5728 240.701 48.5849 240.622 48.5343C240.541 48.4837 240.459 48.4549 240.393 48.4342L240.425 48.5418C240.438 48.5802 240.454 48.6203 240.475 48.6595C240.552 48.801 240.649 48.9626 240.758 49.1286C241.092 49.0219 241.472 48.9252 241.882 48.8786C242.082 48.8559 242.286 48.8515 242.498 48.8529C242.619 48.8461 242.725 48.9243 242.733 49.0275C242.741 49.1305 242.648 49.2197 242.527 49.2265C242.033 49.2668 241.577 49.3722 241.174 49.4909L241.042 49.5311C241.26 49.8192 241.493 50.081 241.694 50.2287C241.802 50.3099 241.813 50.451 241.718 50.5436C241.621 50.6364 241.455 50.6457 241.346 50.5643Z" fill="#FFB61D"/>
<path fill-rule="evenodd" clip-rule="evenodd" d="M125.335 165.381C124.087 170.354 118.066 171.765 118.131 175.768C118.165 177.839 118.841 179.556 119.396 180.877C120.524 183.563 123.464 186.33 124.826 188.891C125.99 191.08 131.829 189.599 132.295 193.001C132.549 194.854 128.418 195.922 127.294 195.994C125.681 196.097 123.635 195.628 121.158 194.587C118.146 193.349 115.727 192.374 113.977 190.589C113.635 190.242 113.421 189.259 113.043 187.715C112.63 186.024 111.219 181.728 107.531 174.79C107.005 173.8 104.989 169.745 102.747 165.597C100.897 162.175 108.543 155.318 111.933 155.558C120.262 156.147 126.216 161.869 125.335 165.381Z" fill="white"/>
<path fill-rule="evenodd" clip-rule="evenodd" d="M119.496 194.661C117.423 193.617 115.717 192.413 114.38 191.051C114.039 190.703 113.788 189.421 113.41 187.877C113.213 187.067 106.015 172.459 103.641 166.961C103.198 165.935 104.273 166.653 104.526 166.961C105.903 168.64 114.38 179.716 118.431 189.978" fill="#E7EAEE"/>
<path fill-rule="evenodd" clip-rule="evenodd" d="M121.112 194.224L121.42 194.353C123.749 195.332 125.63 195.763 127.034 195.673C128.541 195.577 131.003 194.426 131.111 193.447C131.286 191.875 130.783 191.429 128.297 190.635C127.576 190.404 125.626 190.455 122.621 190.839C122.074 190.91 121.563 190.591 121.48 190.128C121.397 189.664 121.773 189.232 122.321 189.162L122.815 189.1C125.889 188.728 127.903 188.695 129.006 189.047L129.333 189.154C132.317 190.152 133.378 191.185 133.109 193.606C132.881 195.658 129.551 197.214 127.185 197.365C125.42 197.479 123.294 197.008 120.787 195.981L120.535 195.876C117.4 194.588 114.904 193.004 113.057 191.122C112.813 190.874 112.658 190.543 112.498 190.037L112.461 189.916C112.402 189.72 112.343 189.501 112.274 189.228L111.876 187.577L111.815 187.336C111.161 184.858 109.266 180.284 106.395 174.851L105.957 174.033C105.687 173.535 101.837 168.257 101.55 167.02C100.475 162.395 104.869 160.104 104.869 160.104C104.869 160.104 102.59 164.172 103.233 166.171C103.732 167.726 107.945 173.075 109.444 177.176C110.995 181.42 112.619 185.948 114.99 189.651C116.781 192.446 118.062 193.712 121.112 194.224Z" fill="#00160A"/>
<path fill-rule="evenodd" clip-rule="evenodd" d="M125.976 193.274C126.075 192.993 126.424 192.833 126.756 192.917C127.789 193.178 128.52 193.467 128.966 193.809C129.389 194.134 129.806 194.633 130.234 195.311C130.398 195.569 130.283 195.89 129.977 196.028C129.672 196.166 129.292 196.069 129.129 195.811C128.762 195.231 128.422 194.824 128.123 194.594C127.846 194.382 127.266 194.153 126.397 193.934C126.066 193.85 125.877 193.554 125.976 193.274Z" fill="#00160A"/>
<path fill-rule="evenodd" clip-rule="evenodd" d="M127.727 191.637C127.836 191.359 128.191 191.209 128.52 191.301C129.404 191.55 130.062 191.834 130.498 192.17C130.931 192.503 131.347 193.04 131.768 193.79C131.916 194.055 131.783 194.371 131.47 194.497C131.158 194.623 130.784 194.51 130.635 194.245C130.278 193.609 129.944 193.177 129.655 192.955C129.37 192.735 128.857 192.514 128.124 192.308C127.795 192.215 127.618 191.915 127.727 191.637Z" fill="#00160A"/>
<path fill-rule="evenodd" clip-rule="evenodd" d="M121.45 157.458C123.656 158.208 127.993 162.369 127.322 164.705C126.628 167.121 125.611 168.086 123.991 169.688L123.822 169.853C123.328 170.329 121.289 172.081 121.208 172.155L121.014 172.336C119.197 174.071 118.454 175.989 119.933 179.525C121.016 182.115 122.797 185.059 125.256 187.867C125.58 188.237 126.388 189.325 125.95 189.599C125.512 189.873 124.476 188.987 124.151 188.616C121.581 185.682 119.718 182.838 118.566 180.082C116.824 175.917 117.244 174.201 119.648 171.959L119.801 171.819C120.058 171.593 121.825 170.072 122.293 169.631L122.34 169.586C123.85 168.133 124.845 166.594 125.484 164.369C125.926 162.832 124.07 160.102 120.148 157.886C117.545 156.415 119.245 156.707 121.45 157.458Z" fill="#00160A"/>
</svg>
