<svg width="414" height="558" viewBox="0 0 414 558" fill="none" xmlns="http://www.w3.org/2000/svg">
<path d="M206.138 94.0858L235.862 68.9981C235.862 68.9981 248.457 82.0171 232.895 95.5537C219.181 107.514 206.138 94.0858 206.138 94.0858Z" fill="#FF8893"/>
<path d="M13.3924 374.129L43.1168 349.041C43.1168 349.041 55.7118 362.06 40.1493 375.596C26.4353 387.556 13.3924 374.129 13.3924 374.129Z" fill="#FF8893"/>
<path d="M190.443 170.489L214.126 150.499C214.126 150.499 224.162 160.873 211.762 171.658C200.835 181.187 190.443 170.489 190.443 170.489Z" fill="#FF8893"/>
<path d="M53.1427 66.5301L29.0449 96.6001L12.2989 63.4997L53.1427 66.5301Z" fill="#FF8893"/>
<path d="M408.844 254.03L384.746 284.1L368 251L408.844 254.03Z" fill="white"/>
<path d="M75.3826 122.942L51.2848 153.012L34.5388 119.911L75.3826 122.942Z" fill="white"/>
<path d="M349.674 127.978L325.576 158.048L308.83 124.948L349.674 127.978Z" fill="white"/>
<path d="M406.763 52L413 62.2199L413 95.0639L391.254 107L370 72.1277L406.763 52Z" fill="#FFD76F"/>
<path d="M412.763 313L419 323.22L419 356.064L397.254 368L376 333.128L412.763 313Z" fill="#FFD76F"/>
<path d="M146.957 134.014L134.949 158.334L118.203 140.075L146.957 134.014Z" fill="#FFC734"/>
<path d="M156.488 375.778L144.48 400.098L127.734 381.838L156.488 375.778Z" fill="#FFC734"/>
<path d="M-11 275.427L16.9386 293.175L35.5978 266.6L7.65927 248.852L-11 275.427Z" fill="#FFC734"/>
<path d="M171.155 21.7798L194.014 36.3013L209.28 14.5583L186.421 0.0367712L171.155 21.7798Z" fill="#FFC734"/>
<path d="M173.866 68.2394C173.947 68.2394 174.029 68.2394 174.029 68.2394L188.651 72.6684C188.978 72.7461 189.141 73.0569 189.059 73.3677C188.978 73.6785 188.651 73.8339 188.324 73.7562L173.702 69.3273C173.375 69.2496 173.212 68.9388 173.294 68.6279C173.375 68.3948 173.62 68.2394 173.866 68.2394Z" fill="white"/>
<path d="M183.423 63.4997C183.504 63.4997 183.504 63.4997 183.586 63.4997C183.913 63.5774 184.076 63.8882 183.994 64.199L179.502 78.1073C179.42 78.4181 179.093 78.5735 178.766 78.4958C178.44 78.4181 178.276 78.1074 178.358 77.7965L182.851 63.8882C182.932 63.6551 183.177 63.4997 183.423 63.4997Z" fill="white"/>
<path d="M187.633 121.629C187.715 121.629 187.796 121.629 187.796 121.629L202.418 126.058C202.745 126.136 202.909 126.446 202.827 126.757C202.745 127.068 202.418 127.223 202.092 127.146L187.47 122.717C187.143 122.639 186.98 122.328 187.061 122.017C187.143 121.784 187.388 121.629 187.633 121.629Z" fill="white"/>
<path d="M197.19 116.889C197.272 116.889 197.272 116.889 197.353 116.889C197.68 116.967 197.843 117.278 197.762 117.589L193.269 131.497C193.187 131.808 192.861 131.963 192.534 131.885C192.207 131.808 192.044 131.497 192.125 131.186L196.618 117.278C196.7 117.045 196.945 116.889 197.19 116.889Z" fill="white"/>
<path d="M34.0723 167.967C34.154 167.967 34.2357 167.967 34.2357 167.967L48.8577 172.396C49.1845 172.474 49.3479 172.784 49.2662 173.095C49.1845 173.406 48.8578 173.561 48.5311 173.484L33.909 169.055C33.5822 168.977 33.4189 168.666 33.5005 168.355C33.5822 168.122 33.8272 167.967 34.0723 167.967Z" fill="white"/>
<path d="M43.6293 163.227C43.711 163.227 43.711 163.227 43.7927 163.227C44.1194 163.305 44.2828 163.616 44.2011 163.927L39.7083 177.835C39.6266 178.146 39.2998 178.301 38.9731 178.223C38.6463 178.146 38.483 177.835 38.5646 177.524L43.0575 163.616C43.1391 163.383 43.3843 163.227 43.6293 163.227Z" fill="white"/>
<path d="M368.729 157.84C368.811 157.84 368.892 157.84 368.892 157.84L383.514 162.219C383.841 162.296 384.004 162.603 383.923 162.91C383.841 163.218 383.514 163.371 383.188 163.294L368.566 158.916C368.239 158.839 368.075 158.531 368.157 158.224C368.239 157.994 368.484 157.84 368.729 157.84Z" fill="white"/>
<path d="M378.286 153.154C378.368 153.154 378.368 153.154 378.449 153.154C378.776 153.231 378.939 153.538 378.858 153.845L374.365 167.596C374.283 167.904 373.956 168.057 373.63 167.98C373.303 167.904 373.14 167.596 373.221 167.289L377.714 153.538C377.796 153.307 378.041 153.154 378.286 153.154Z" fill="white"/>
<path d="M377 216.425L393.419 197C393.419 197 403.549 203.216 394.971 213.55C387.456 222.719 377 216.425 377 216.425Z" fill="#FF8893"/>
<path d="M58.7599 48.2589C58.8416 48.2589 58.9233 48.2589 58.9233 48.2589C59.25 48.3366 59.4134 48.7252 59.3317 48.9583L57.9431 52.8433C57.8614 53.1541 57.4529 53.3095 57.2079 53.2318C56.8811 53.1541 56.7177 52.7656 56.7994 52.5325L58.1881 48.6474C58.2698 48.4143 58.5149 48.2589 58.7599 48.2589Z" fill="#FBA6AE"/>
<path d="M115.533 39.3234C115.778 39.3234 115.942 39.4011 116.105 39.6342L120.598 47.4042C120.761 47.715 120.68 48.0258 120.353 48.1812C120.026 48.3366 119.699 48.2589 119.536 47.9481L115.043 40.178C114.88 39.8672 114.961 39.5564 115.288 39.401C115.37 39.3233 115.452 39.3234 115.533 39.3234Z" fill="#FFD76F"/>
<path d="M112.756 92.7812C112.919 92.7812 113.001 92.7812 113.083 92.8589L120.434 97.9871C120.679 98.1425 120.761 98.531 120.598 98.7641C120.434 98.9972 120.026 99.0749 119.781 98.9195L112.429 93.7913C112.184 93.6359 112.102 93.2474 112.266 93.0143C112.347 92.8589 112.592 92.7812 112.756 92.7812Z" fill="#FBA6AE"/>
<path d="M79.7546 100.551C79.9179 100.551 80.0813 100.629 80.163 100.707C80.4081 100.94 80.4081 101.328 80.163 101.561L76.3237 105.058C76.0787 105.291 75.6702 105.291 75.4251 105.058C75.18 104.825 75.18 104.436 75.4251 104.203L79.2645 100.707C79.5095 100.629 79.5912 100.551 79.7546 100.551Z" fill="#FFD76F"/>
<path d="M144.859 50.8229C144.941 50.8229 145.022 50.8229 145.104 50.9006C145.431 50.9783 145.594 51.3668 145.431 51.6776L139.958 65.1974C139.794 65.5082 139.468 65.6637 139.141 65.5083C138.814 65.4306 138.651 65.0421 138.814 64.7312L144.287 51.2114C144.369 50.9783 144.614 50.8229 144.859 50.8229Z" fill="#FBA6AE"/>
<path d="M82.0413 144.607C82.123 144.607 82.2046 144.607 82.2863 144.607L88.658 146.861C88.9847 146.938 89.1481 147.327 88.9847 147.638C88.9031 147.948 88.4946 148.104 88.1679 147.948L81.7962 145.695C81.4694 145.617 81.3061 145.229 81.4694 144.918C81.5511 144.763 81.7962 144.607 82.0413 144.607Z" fill="#FFD76F"/>
<path d="M14.2802 394.787C14.3619 394.787 14.4435 394.787 14.4435 394.787C14.7703 394.864 14.9337 395.253 14.852 395.486L13.4633 399.371C13.3817 399.682 12.9732 399.837 12.7281 399.759C12.4014 399.682 12.238 399.293 12.3197 399.06L13.7083 395.175C13.79 394.942 14.0351 394.787 14.2802 394.787Z" fill="#FBA6AE"/>
<path d="M71.0536 385.851C71.2986 385.851 71.462 385.929 71.6253 386.162L76.1182 393.932C76.2815 394.243 76.1998 394.554 75.873 394.709C75.5463 394.864 75.2195 394.787 75.0562 394.476L70.5634 386.706C70.4 386.395 70.4817 386.084 70.8085 385.929C70.8901 385.851 70.9719 385.851 71.0536 385.851Z" fill="#FFD76F"/>
<path d="M68.276 439.309C68.4394 439.309 68.5211 439.309 68.6028 439.386L75.9547 444.515C76.1997 444.67 76.2814 445.059 76.118 445.292C75.9546 445.525 75.5462 445.603 75.3011 445.447L67.9492 440.319C67.7042 440.163 67.6225 439.775 67.7859 439.542C67.8676 439.386 68.1126 439.309 68.276 439.309Z" fill="#FBA6AE"/>
<path d="M35.2748 447.079C35.4382 447.079 35.6016 447.157 35.6833 447.234C35.9283 447.467 35.9283 447.856 35.6833 448.089L31.844 451.586C31.5989 451.819 31.1904 451.819 30.9454 451.586C30.7003 451.352 30.7003 450.964 30.9454 450.731L34.7847 447.234C35.0298 447.157 35.1115 447.079 35.2748 447.079Z" fill="#FFD76F"/>
<path d="M100.379 397.351C100.461 397.351 100.543 397.351 100.624 397.428C100.951 397.506 101.114 397.895 100.951 398.205L95.4779 411.725C95.3145 412.036 94.9878 412.191 94.661 412.036C94.3343 411.958 94.171 411.57 94.3344 411.259L99.8074 397.739C99.8891 397.506 100.134 397.351 100.379 397.351Z" fill="#FBA6AE"/>
<path d="M37.5616 491.135C37.6433 491.135 37.7249 491.135 37.8066 491.135L44.1782 493.388C44.505 493.466 44.6684 493.854 44.505 494.165C44.4233 494.476 44.0149 494.631 43.6881 494.476L37.3165 492.223C36.9897 492.145 36.8263 491.756 36.9897 491.446C37.0714 491.29 37.3165 491.135 37.5616 491.135Z" fill="#FFD76F"/>
<path d="M144.542 394.787C144.624 394.787 144.706 394.787 144.706 394.787C145.032 394.864 145.196 395.253 145.114 395.486L143.725 399.371C143.644 399.682 143.235 399.837 142.99 399.759C142.663 399.682 142.5 399.293 142.582 399.06L143.97 395.175C144.052 394.942 144.297 394.787 144.542 394.787Z" fill="#FBA6AE"/>
<path d="M201.316 385.851C201.561 385.851 201.724 385.929 201.887 386.162L206.38 393.932C206.543 394.243 206.462 394.554 206.135 394.709C205.808 394.864 205.482 394.787 205.318 394.476L200.825 386.706C200.662 386.395 200.744 386.084 201.07 385.929C201.152 385.851 201.234 385.851 201.316 385.851Z" fill="#FFD76F"/>
<path d="M198.538 439.309C198.701 439.309 198.783 439.309 198.865 439.386L206.217 444.515C206.462 444.67 206.543 445.059 206.38 445.292C206.217 445.525 205.808 445.603 205.563 445.447L198.211 440.319C197.966 440.163 197.884 439.775 198.048 439.542C198.13 439.386 198.375 439.309 198.538 439.309Z" fill="#FBA6AE"/>
<path d="M165.537 447.079C165.7 447.079 165.864 447.157 165.945 447.234C166.19 447.467 166.19 447.856 165.945 448.089L162.106 451.586C161.861 451.819 161.452 451.819 161.207 451.586C160.962 451.352 160.962 450.964 161.207 450.731L165.047 447.234C165.292 447.157 165.373 447.079 165.537 447.079Z" fill="#FFD76F"/>
<path d="M230.641 397.351C230.723 397.351 230.805 397.351 230.886 397.428C231.213 397.506 231.376 397.895 231.213 398.205L225.74 411.725C225.577 412.036 225.25 412.191 224.923 412.036C224.596 411.958 224.433 411.57 224.596 411.259L230.069 397.739C230.151 397.506 230.396 397.351 230.641 397.351Z" fill="#FBA6AE"/>
<path d="M167.824 491.135C167.905 491.135 167.987 491.135 168.069 491.135L174.44 493.388C174.767 493.466 174.93 493.854 174.767 494.165C174.685 494.476 174.277 494.631 173.95 494.476L167.578 492.223C167.252 492.145 167.088 491.756 167.252 491.446C167.333 491.29 167.578 491.135 167.824 491.135Z" fill="#FFD76F"/>
<path d="M297.044 451.198C297.126 451.198 297.207 451.198 297.207 451.198C297.534 451.276 297.697 451.664 297.616 451.897L296.227 455.782C296.145 456.093 295.737 456.249 295.492 456.171C295.165 456.093 295.002 455.705 295.083 455.472L296.472 451.587C296.554 451.354 296.799 451.198 297.044 451.198Z" fill="#FBA6AE"/>
<path d="M353.817 442.263C354.062 442.263 354.226 442.34 354.389 442.574L358.882 450.344C359.045 450.654 358.963 450.965 358.637 451.121C358.31 451.276 357.983 451.198 357.82 450.887L353.327 443.117C353.164 442.807 353.245 442.496 353.572 442.34C353.654 442.263 353.736 442.263 353.817 442.263Z" fill="#FFD76F"/>
<path d="M351.04 495.721C351.203 495.721 351.285 495.721 351.366 495.798L358.718 500.926C358.963 501.082 359.045 501.47 358.882 501.703C358.718 501.937 358.31 502.014 358.065 501.859L350.713 496.731C350.468 496.575 350.386 496.187 350.55 495.954C350.631 495.798 350.876 495.721 351.04 495.721Z" fill="#FBA6AE"/>
<path d="M318.039 503.49C318.202 503.49 318.365 503.568 318.447 503.646C318.692 503.879 318.692 504.267 318.447 504.501L314.608 507.997C314.363 508.23 313.954 508.23 313.709 507.997C313.464 507.764 313.464 507.375 313.709 507.142L317.548 503.646C317.793 503.568 317.875 503.49 318.039 503.49Z" fill="#FFD76F"/>
<path d="M383.143 453.762C383.225 453.762 383.306 453.762 383.388 453.84C383.715 453.918 383.878 454.306 383.715 454.617L378.242 468.137C378.078 468.448 377.751 468.603 377.425 468.448C377.098 468.37 376.935 467.981 377.098 467.671L382.571 454.151C382.653 453.918 382.898 453.762 383.143 453.762Z" fill="#FBA6AE"/>
<path d="M320.325 547.546C320.407 547.546 320.489 547.546 320.57 547.546L326.942 549.8C327.269 549.877 327.432 550.266 327.269 550.577C327.187 550.888 326.779 551.043 326.452 550.888L320.08 548.634C319.753 548.557 319.59 548.168 319.753 547.857C319.835 547.702 320.08 547.546 320.325 547.546Z" fill="#FFD76F"/>
<path d="M191.14 458.25C191.222 458.25 191.303 458.25 191.303 458.25C191.63 458.327 191.793 458.716 191.712 458.949L190.323 462.834C190.241 463.145 189.833 463.3 189.588 463.222C189.261 463.145 189.098 462.756 189.179 462.523L190.568 458.638C190.65 458.405 190.895 458.25 191.14 458.25Z" fill="#FBA6AE"/>
<path d="M247.913 449.314C248.158 449.314 248.322 449.392 248.485 449.625L252.978 457.395C253.141 457.706 253.06 458.017 252.733 458.172C252.406 458.327 252.079 458.25 251.916 457.939L247.423 450.169C247.26 449.858 247.341 449.547 247.668 449.392C247.75 449.314 247.832 449.314 247.913 449.314Z" fill="#FFD76F"/>
<path d="M245.136 502.772C245.299 502.772 245.381 502.772 245.463 502.85L252.814 507.978C253.059 508.133 253.141 508.522 252.978 508.755C252.814 508.988 252.406 509.066 252.161 508.91L244.809 503.782C244.564 503.626 244.482 503.238 244.646 503.005C244.727 502.849 244.972 502.772 245.136 502.772Z" fill="#FBA6AE"/>
<path d="M212.135 510.542C212.298 510.542 212.461 510.62 212.543 510.697C212.788 510.93 212.788 511.319 212.543 511.552L208.704 515.049C208.459 515.282 208.05 515.282 207.805 515.049C207.56 514.815 207.56 514.427 207.805 514.194L211.644 510.697C211.89 510.62 211.971 510.542 212.135 510.542Z" fill="#FFD76F"/>
<path d="M277.239 460.814C277.321 460.814 277.402 460.814 277.484 460.891C277.811 460.969 277.974 461.358 277.811 461.668L272.338 475.188C272.174 475.499 271.848 475.654 271.521 475.499C271.194 475.421 271.031 475.033 271.194 474.722L276.667 461.202C276.749 460.969 276.994 460.814 277.239 460.814Z" fill="#FBA6AE"/>
<path d="M214.421 554.598C214.503 554.598 214.585 554.598 214.666 554.598L221.038 556.851C221.365 556.929 221.528 557.317 221.365 557.628C221.283 557.939 220.875 558.094 220.548 557.939L214.176 555.686C213.849 555.608 213.686 555.22 213.849 554.909C213.931 554.753 214.176 554.598 214.421 554.598Z" fill="#FFD76F"/>
<path d="M55.5828 456.235C55.6645 456.235 55.7462 456.235 55.7462 456.235C56.0729 456.312 56.2363 456.701 56.1546 456.934L54.766 460.819C54.6843 461.13 54.2758 461.285 54.0307 461.208C53.704 461.13 53.5406 460.741 53.6223 460.508L55.011 456.623C55.0926 456.39 55.3378 456.235 55.5828 456.235Z" fill="#FBA6AE"/>
<path d="M112.356 447.299C112.601 447.299 112.765 447.377 112.928 447.61L117.421 455.38C117.584 455.691 117.502 456.002 117.176 456.157C116.849 456.313 116.522 456.235 116.359 455.924L111.866 448.154C111.703 447.843 111.784 447.532 112.111 447.377C112.193 447.299 112.274 447.299 112.356 447.299Z" fill="#FFD76F"/>
<path d="M109.579 500.757C109.742 500.757 109.824 500.757 109.905 500.835L117.257 505.963C117.502 506.118 117.584 506.507 117.421 506.74C117.257 506.973 116.849 507.051 116.604 506.895L109.252 501.767C109.007 501.612 108.925 501.223 109.089 500.99C109.17 500.835 109.415 500.757 109.579 500.757Z" fill="#FBA6AE"/>
<path d="M76.5774 508.527C76.7408 508.527 76.9042 508.605 76.9859 508.682C77.2309 508.916 77.2309 509.304 76.9859 509.537L73.1466 513.034C72.9015 513.267 72.493 513.267 72.248 513.034C72.0029 512.801 72.0029 512.412 72.248 512.179L76.0873 508.682C76.3324 508.605 76.4141 508.527 76.5774 508.527Z" fill="#FFD76F"/>
<path d="M141.682 458.799C141.763 458.799 141.845 458.799 141.927 458.877C142.254 458.954 142.417 459.343 142.254 459.654L136.781 473.173C136.617 473.484 136.29 473.64 135.964 473.484C135.637 473.407 135.474 473.018 135.637 472.707L141.11 459.187C141.192 458.954 141.437 458.799 141.682 458.799Z" fill="#FBA6AE"/>
<path d="M78.8642 552.583C78.9459 552.583 79.0275 552.583 79.1092 552.583L85.4808 554.836C85.8076 554.914 85.971 555.303 85.8076 555.613C85.7259 555.924 85.3175 556.08 84.9907 555.924L78.6191 553.671C78.2923 553.593 78.1289 553.205 78.2923 552.894C78.374 552.738 78.6191 552.583 78.8642 552.583Z" fill="#FFD76F"/>
<path d="M185.845 168.133C185.926 168.133 186.008 168.133 186.008 168.133C186.335 168.211 186.498 168.6 186.416 168.833L185.028 172.718C184.946 173.028 184.538 173.184 184.293 173.106C183.966 173.028 183.802 172.64 183.884 172.407L185.273 168.522C185.354 168.289 185.6 168.133 185.845 168.133Z" fill="#FBA6AE"/>
<path d="M242.618 159.198C242.863 159.198 243.026 159.275 243.19 159.509L247.683 167.279C247.846 167.589 247.764 167.9 247.438 168.056C247.111 168.211 246.784 168.133 246.621 167.822L242.128 160.052C241.964 159.742 242.046 159.431 242.373 159.275C242.455 159.198 242.536 159.198 242.618 159.198Z" fill="#FFD76F"/>
<path d="M239.84 212.656C240.004 212.656 240.086 212.656 240.167 212.733L247.519 217.861C247.764 218.017 247.846 218.405 247.682 218.638C247.519 218.872 247.111 218.949 246.866 218.794L239.514 213.666C239.269 213.51 239.187 213.122 239.35 212.889C239.432 212.733 239.677 212.656 239.84 212.656Z" fill="#FBA6AE"/>
<path d="M206.839 220.425C207.003 220.425 207.166 220.503 207.248 220.581C207.493 220.814 207.493 221.202 207.248 221.436L203.408 224.932C203.163 225.165 202.755 225.165 202.51 224.932C202.265 224.699 202.265 224.311 202.51 224.077L206.349 220.581C206.594 220.503 206.676 220.425 206.839 220.425Z" fill="#FFD76F"/>
<path d="M271.944 170.697C272.025 170.697 272.107 170.697 272.189 170.775C272.515 170.853 272.679 171.241 272.515 171.552L267.042 185.072C266.879 185.383 266.552 185.538 266.226 185.383C265.899 185.305 265.735 184.916 265.899 184.606L271.372 171.086C271.454 170.853 271.699 170.697 271.944 170.697Z" fill="#FBA6AE"/>
<path d="M209.126 264.482C209.208 264.482 209.289 264.482 209.371 264.482L215.743 266.735C216.069 266.813 216.233 267.201 216.069 267.512C215.988 267.823 215.579 267.978 215.253 267.823L208.881 265.569C208.554 265.492 208.391 265.103 208.554 264.792C208.636 264.637 208.881 264.482 209.126 264.482Z" fill="#FFD76F"/>
<path d="M30.1658 185.258C30.2475 185.258 30.3292 185.258 30.3292 185.258C30.6559 185.336 30.8193 185.724 30.7376 185.958L29.349 189.843C29.2673 190.153 28.8588 190.309 28.6138 190.231C28.287 190.153 28.1236 189.765 28.2053 189.532L29.594 185.647C29.6756 185.414 29.9208 185.258 30.1658 185.258Z" fill="#FBA6AE"/>
<path d="M86.9392 176.323C87.1842 176.323 87.3476 176.4 87.511 176.633L92.0038 184.403C92.1671 184.714 92.0854 185.025 91.7587 185.18C91.4319 185.336 91.1052 185.258 90.9418 184.947L86.449 177.177C86.2856 176.867 86.3673 176.556 86.6941 176.4C86.7758 176.323 86.8575 176.323 86.9392 176.323Z" fill="#FFD76F"/>
<path d="M84.1616 229.78C84.325 229.78 84.4067 229.78 84.4884 229.858L91.8403 234.986C92.0853 235.142 92.167 235.53 92.0036 235.763C91.8402 235.996 91.4318 236.074 91.1867 235.919L83.8349 230.791C83.5898 230.635 83.5082 230.247 83.6715 230.014C83.7532 229.858 83.9983 229.78 84.1616 229.78Z" fill="#FBA6AE"/>
<path d="M51.1605 237.55C51.3238 237.55 51.4872 237.628 51.5689 237.706C51.814 237.939 51.814 238.327 51.5689 238.56L47.7296 242.057C47.4846 242.29 47.076 242.29 46.831 242.057C46.5859 241.824 46.5859 241.435 46.831 241.202L50.6703 237.706C50.9154 237.628 50.9971 237.55 51.1605 237.55Z" fill="#FFD76F"/>
<path d="M116.265 187.822C116.346 187.822 116.428 187.822 116.51 187.9C116.837 187.978 117 188.366 116.837 188.677L111.364 202.197C111.2 202.508 110.873 202.663 110.547 202.508C110.22 202.43 110.057 202.041 110.22 201.731L115.693 188.211C115.775 187.978 116.02 187.822 116.265 187.822Z" fill="#FBA6AE"/>
<path d="M53.4472 281.606C53.5289 281.606 53.6105 281.606 53.6922 281.606L60.0639 283.86C60.3906 283.937 60.554 284.326 60.3906 284.637C60.3089 284.948 59.9005 285.103 59.5737 284.948L53.2021 282.694C52.8753 282.617 52.7119 282.228 52.8753 281.917C52.957 281.762 53.2021 281.606 53.4472 281.606Z" fill="#FFD76F"/>
<path d="M246.21 35.1634C246.292 35.1634 246.373 35.1634 246.373 35.1634C246.7 35.2411 246.863 35.6296 246.782 35.8627L245.393 39.7477C245.311 40.0585 244.903 40.2139 244.658 40.1362C244.331 40.0585 244.168 39.67 244.25 39.4369L245.638 35.5519C245.72 35.3188 245.965 35.1634 246.21 35.1634Z" fill="#FBA6AE"/>
<path d="M302.983 26.2278C303.228 26.2278 303.392 26.3055 303.555 26.5386L308.048 34.3086C308.211 34.6194 308.13 34.9302 307.803 35.0856C307.476 35.241 307.149 35.1633 306.986 34.8525L302.493 27.0825C302.33 26.7717 302.412 26.4609 302.738 26.3055C302.82 26.2278 302.902 26.2278 302.983 26.2278Z" fill="#FFD76F"/>
<path d="M300.206 79.6856C300.369 79.6856 300.451 79.6856 300.533 79.7633L307.884 84.8915C308.13 85.0469 308.211 85.4354 308.048 85.6685C307.884 85.9016 307.476 85.9793 307.231 85.8239L299.879 80.6957C299.634 80.5403 299.552 80.1518 299.716 79.9187C299.797 79.7633 300.042 79.6856 300.206 79.6856Z" fill="#FBA6AE"/>
<path d="M267.205 87.4555C267.368 87.4555 267.531 87.5332 267.613 87.6109C267.858 87.844 267.858 88.2325 267.613 88.4656L263.774 91.9621C263.529 92.1952 263.12 92.1952 262.875 91.9621C262.63 91.729 262.63 91.3406 262.875 91.1075L266.715 87.6109C266.96 87.5332 267.041 87.4555 267.205 87.4555Z" fill="#FFD76F"/>
<path d="M332.309 37.7273C332.391 37.7273 332.472 37.7273 332.554 37.805C332.881 37.8827 333.044 38.2712 332.881 38.582L327.408 52.1019C327.244 52.4127 326.918 52.5681 326.591 52.4127C326.264 52.335 326.101 51.9465 326.264 51.6357L331.737 38.1158C331.819 37.8827 332.064 37.7273 332.309 37.7273Z" fill="#FBA6AE"/>
<path d="M269.491 131.512C269.573 131.512 269.655 131.512 269.736 131.512L276.108 133.765C276.435 133.843 276.598 134.231 276.435 134.542C276.353 134.853 275.945 135.008 275.618 134.853L269.246 132.599C268.92 132.522 268.756 132.133 268.92 131.822C269.001 131.667 269.246 131.512 269.491 131.512Z" fill="#FFD76F"/>
</svg>
