<svg width="414" height="415" viewBox="0 0 414 415" fill="none" xmlns="http://www.w3.org/2000/svg">
<rect width="414.207" height="414" transform="translate(-1.52588e-05 0.551727)" fill="#F5F5FA"/>
<path d="M284.722 87.6398C281.435 78.867 278.005 69.7138 254.784 75.9049C242.315 79.2292 231.863 90.9745 223.318 108.417C216.89 122.288 211.458 140.226 207.125 161.733C198.271 205.68 194.541 262.529 196.285 317.801L192.421 317.923L192.37 316.256C191.191 276.343 192.846 235.686 197.214 199.64C178.631 180.336 157.449 165.12 142.014 160.066C105.437 152.005 95.7741 173.302 96.0138 192.3C96.0576 195.774 97.2722 198.663 98.4958 201.574C99.761 204.583 101.036 207.616 101.036 211.341C101.036 213.812 95.5079 218.915 88.3221 225.55C74.1951 238.592 53.6604 257.55 56.1251 274.049C58.4027 289.296 72.8468 300.873 86.1419 307.097C87.4435 307.706 88.8612 308.839 90.5669 310.201C91.7801 311.17 93.1389 312.255 94.7054 313.351L94.8258 313.435C96.0563 314.282 98.0872 315.477 100.918 317.02L101.792 317.494C141.846 339.09 188.331 324.541 202.816 319.17L203.663 318.853L306.384 317.71L306.371 317.63C306.343 317.462 306.297 317.214 306.238 316.893C305.272 311.663 300.737 287.094 310.394 277.194C340.551 246.274 373.62 157.79 328.659 120.711C318.723 112.517 308.864 107.535 301.292 103.71C296.693 101.386 292.938 99.4889 290.522 97.5571C287.547 95.1781 286.148 91.4448 284.722 87.6398Z" fill="#57419D"/>
<path fill-rule="evenodd" clip-rule="evenodd" d="M102.807 186.677C100.543 186.284 104.544 190.771 104.544 190.771C104.544 190.771 105.07 187.07 102.807 186.677Z" fill="white"/>
<path fill-rule="evenodd" clip-rule="evenodd" d="M136.666 318.055C136.666 318.055 112.351 307.887 112.351 293.729C112.351 289.576 114.95 289.975 120.148 294.926C120.714 295.464 121.524 296.291 122.578 297.406C123.224 298.089 108.631 280.377 115.984 277.064C123.152 273.834 124.819 290.601 125.194 290.369C125.61 290.112 125.489 285.039 127.148 282.796C128.041 281.588 130.669 281.33 132.658 282.796C143.105 290.501 136.666 318.055 136.666 318.055Z" fill="white"/>
<path fill-rule="evenodd" clip-rule="evenodd" d="M126.215 214.199C126.215 214.199 116.1 213.68 114.721 210.465C113.342 207.251 120.843 209.078 120.843 209.078L126.215 214.199Z" fill="white"/>
<path fill-rule="evenodd" clip-rule="evenodd" d="M109.109 198.96C106.844 197.693 108.132 194.674 109.109 194.548C112 194.176 114.281 200.579 114.599 201.22C115.151 202.331 110.258 199.603 109.109 198.96Z" fill="white"/>
<path fill-rule="evenodd" clip-rule="evenodd" d="M132.394 218.37C132.394 218.37 126.856 204.258 131.982 205.37C137.109 206.482 135.634 222.887 135.634 222.887L132.394 218.37Z" fill="white"/>
<path fill-rule="evenodd" clip-rule="evenodd" d="M128.675 208.091C128.748 210.38 129.726 213.891 131.605 218.679C131.631 218.744 131.665 218.806 131.705 218.863L134.946 223.381C135.403 224.018 136.407 223.744 136.478 222.963L136.536 222.287C137.447 211.349 136.132 205.404 132.162 204.543C129.852 204.042 128.591 205.423 128.675 208.091ZM131.888 206.217C134.354 206.849 135.501 211.423 135 220.009L134.968 220.507L133.142 217.961L132.822 217.133C131.244 212.988 130.428 209.942 130.367 208.036L130.363 207.77C130.359 206.327 130.755 205.969 131.802 206.196L131.888 206.217Z" fill="#00160A"/>
<path fill-rule="evenodd" clip-rule="evenodd" d="M112.837 276.208C109.27 277.816 109.517 281.871 112.24 287.394L112.449 287.812C112.947 288.791 113.515 289.802 114.144 290.839L114.361 291.193L114.334 291.175C113.316 290.498 112.437 290.102 111.681 289.986C109.674 289.678 108.65 291.156 108.65 293.729C108.65 303.637 117.021 312.012 133.542 318.92C134.078 319.144 134.687 318.833 134.819 318.268C139.189 299.57 137.813 287.468 130.454 282.041C128.196 280.376 124.932 280.48 123.631 282.238L123.518 282.398C122.966 283.21 122.58 284.279 122.294 285.609L122.281 285.668L122.244 285.522C122.041 284.726 121.826 283.975 121.583 283.223C120.776 280.729 119.812 278.771 118.602 277.46C117.01 275.736 115.03 275.22 112.837 276.208ZM120.917 288.097L121.33 290.04L121.377 290.242C121.408 290.364 121.435 290.462 121.463 290.546C121.501 290.658 121.54 290.751 121.603 290.849C121.68 290.971 121.776 291.079 121.929 291.171C122.227 291.351 122.61 291.361 122.925 291.167C123.331 290.916 123.43 290.701 123.542 289.991L123.593 289.637C123.63 289.374 123.764 288.26 123.787 288.084C123.877 287.38 123.967 286.799 124.078 286.245C124.338 284.946 124.688 283.965 125.14 283.353C125.759 282.516 127.846 282.45 129.338 283.55L129.534 283.698C135.74 288.475 137.084 299.298 133.354 316.235L133.239 316.752L132.857 316.587C117.903 310.068 110.527 302.428 110.527 293.728C110.527 292.148 110.803 291.749 111.395 291.84C112.443 292.001 114.273 293.256 116.738 295.604L117.053 295.909C117.429 296.278 117.891 296.748 118.437 297.318L119.165 298.082C119.177 298.093 119.196 298.11 119.233 298.144L119.245 298.172C119.274 298.219 119.367 298.237 119.982 298.351L120.197 298.275C120.45 298.179 120.491 298.116 120.707 297.777L120.756 297.571C120.786 297.436 120.781 297.404 120.765 297.287L120.725 297.12C120.715 297.088 120.709 297.071 120.697 297.047L120.688 297.027C120.663 296.973 120.648 296.945 120.624 296.908L120.369 296.565L119.718 295.704C119.607 295.554 119.494 295.402 119.369 295.233C118.299 293.781 117.261 292.281 116.286 290.733C115.372 289.283 114.574 287.885 113.923 286.564C111.626 281.903 111.442 278.894 113.608 277.918C116.214 276.744 118.214 278.912 119.795 283.799C120.224 285.127 120.565 286.465 120.917 288.097Z" fill="#00160A"/>
<path fill-rule="evenodd" clip-rule="evenodd" d="M115.749 201.738L116.52 202.44C126.083 211.165 132.742 218.127 136.291 222.958C142.486 231.391 147.478 240.137 151.686 249.398C153.181 252.69 154.534 255.948 155.868 259.408L156.232 260.357C156.647 261.45 157.049 262.529 157.488 263.725L159.354 268.873C164.404 282.692 162.732 283.365 157.925 269.924L156.037 264.713C155.642 263.63 155.279 262.651 154.915 261.685L154.641 260.962C153.201 257.176 151.752 253.657 150.136 250.101C145.975 240.942 141.041 232.297 134.919 223.965L134.639 223.587C131.003 218.747 124.251 211.751 114.605 202.997C114.257 202.681 114.231 202.143 114.547 201.796C114.863 201.448 115.401 201.422 115.749 201.738ZM93.3643 182.465L105.274 192.625C106.39 193.582 107.26 194.332 107.676 194.698C108.028 195.009 108.062 195.546 107.751 195.898C107.441 196.251 106.903 196.285 106.551 195.974L103.451 193.303C99.3354 189.779 92.8374 184.252 92.2578 183.757C91.9009 183.451 91.8592 182.914 92.1648 182.558C92.4703 182.201 93.0074 182.159 93.3643 182.465Z" fill="#00160A"/>
<path fill-rule="evenodd" clip-rule="evenodd" d="M115.375 207.686C113.811 208.04 113.285 209.264 113.943 210.799C115.041 213.359 119.113 214.682 126.171 215.044C126.955 215.085 127.367 214.128 126.799 213.587L121.427 208.465C121.32 208.363 121.188 208.291 121.043 208.256C118.424 207.617 116.559 207.417 115.375 207.686ZM120.422 209.846L123.924 213.185L123.714 213.165L123.185 213.109C118.676 212.604 116.111 211.559 115.499 210.131L115.435 209.978C115.248 209.508 115.315 209.434 115.749 209.336C116.548 209.155 118.044 209.297 120.175 209.789L120.422 209.846Z" fill="#00160A"/>
<path fill-rule="evenodd" clip-rule="evenodd" d="M110.403 323.023C108.271 324.251 109.139 325.529 113.738 327.568C118.7 329.798 127.935 334.104 143.796 335.317C168.364 337.195 190.733 333.651 218.972 333.651C258.066 333.651 275.227 342.236 288.91 340.256C325.59 334.948 333.899 324.647 322.957 321.989C310.943 319.071 272.758 319.427 259.904 318.588L255.926 318.333L252.509 318.247C215.51 317.339 156.204 318.247 144.622 318.247C120.993 318.247 110.403 323.023 110.403 323.023Z" fill="white"/>
<path fill-rule="evenodd" clip-rule="evenodd" d="M218.972 333.651C258.066 333.651 275.227 342.533 288.91 340.553C325.59 335.245 333.899 324.647 322.957 321.989C310.943 319.071 267.301 318.123 256.555 318.355C256.555 318.355 305.958 327.479 303.314 330.501C295.443 339.498 275.843 328.626 240.245 328.943C232.912 329.009 218.972 333.651 218.972 333.651Z" fill="#E7EAEE"/>
<path fill-rule="evenodd" clip-rule="evenodd" d="M146.967 318.633C146.015 318.638 145.251 318.641 144.622 318.641L143.543 318.643C128.182 318.715 116.978 320.329 109.883 323.529L109.773 323.585C108.116 324.539 107.481 325.944 108.522 327.386C109.195 328.319 110.605 329.199 112.984 330.271L115.007 331.174C117.531 332.291 119.028 332.897 121.275 333.687L121.519 333.772C128.001 336.036 135.195 337.581 143.7 338.231C149.743 338.694 155.902 338.852 162.653 338.758L165.017 338.717C169.456 338.626 173.237 338.47 180.146 338.099L192.087 337.438C203.466 336.823 210.408 336.577 218.604 336.569L218.972 336.569C233.64 336.569 245.623 337.685 258.913 339.86L260.066 340.052C262.069 340.4 273.083 342.339 276.124 342.776L276.229 342.791C281.536 343.538 285.463 343.687 289.091 343.162L290.105 343.013C306.581 340.552 318.486 336.887 324.498 332.831C330.505 328.78 329.962 324.138 323.454 322.468L323.255 322.418C317.851 321.105 307.593 320.376 291.653 319.899L288.383 319.806C287.431 319.781 286.446 319.755 285.411 319.73L271.534 319.409C266.19 319.277 262.914 319.163 260.433 319.012L256.007 318.729L252.54 318.641L249.017 318.561C238.799 318.348 226.595 318.246 212.626 318.238L208.473 318.238C198.739 318.244 188.663 318.291 177.415 318.376L146.967 318.633ZM215.875 320.767C229.817 320.791 241.906 320.913 251.903 321.152L255.894 321.251L260.432 321.542C262.929 321.691 266.199 321.803 271.46 321.933L284.827 322.241C286.403 322.28 287.859 322.317 289.256 322.356L292.529 322.452C307.724 322.924 317.601 323.643 322.658 324.872L322.961 324.948C327.156 326.049 327.293 327.9 323.085 330.738C317.331 334.619 293.708 345.018 277.014 341.473L276.247 341.364C272.718 340.84 260.893 338.189 260.196 338.073L258.483 337.793C245.682 335.733 233.998 334.653 219.914 334.607L217.866 334.607C209.444 334.629 202.19 334.91 189.865 335.592L181.312 336.068C173.04 336.519 169.095 336.68 163.949 336.773L163.534 336.78C137.433 337.793 121.519 331.716 121.519 331.716C119.436 330.972 114.046 329.101 114.046 329.101L113.645 328.918C101.071 324.651 128.524 321.238 143.566 321.168L148.255 321.15L175.494 320.916C188.175 320.817 199.339 320.764 210.138 320.762L215.875 320.767Z" fill="#00160A"/>
<path fill-rule="evenodd" clip-rule="evenodd" d="M273.881 300.409C273.881 300.409 273.815 304.152 274.968 305.885C276.12 307.617 279.335 312.435 282.325 313.703C283.246 314.093 286.763 314.143 288.876 315.377C293.12 317.856 294.065 322.32 288.876 323.266C278.573 325.144 274.968 319.716 274.968 319.716C274.968 319.716 270.723 313.703 266.469 309.715C262.215 305.727 258.827 304.526 258.827 304.526" fill="white"/>
<path d="M309.436 135.838C308.003 135.731 307.159 136.82 307.159 138.139C307.159 142.705 314.623 148.95 319.486 148.95C320.912 148.95 322.078 147.931 321.664 146.373C321.508 145.786 321.149 145.265 320.56 144.623L320.43 144.483C319.768 143.78 319.083 143.153 317.548 141.832L315.197 139.818C314.62 139.319 313.702 138.523 313.425 138.286L313.091 138.003C312.448 137.461 311.951 137.066 311.508 136.753C310.723 136.199 310.115 135.889 309.436 135.838Z" fill="white"/>
<path fill-rule="evenodd" clip-rule="evenodd" d="M261.758 225.363C261.758 225.363 258.932 217.302 251.669 215.119C249.361 214.425 259.456 229.653 250.547 235.333C247.765 237.106 242.82 238.026 236.736 238.892C209.611 242.751 201.433 232.635 184.689 227.694C177.975 225.713 145.318 216.951 140.38 261.588C137.289 289.528 160.698 298.187 181.677 302.626C223.703 311.52 288.1 308.014 308.184 278.702C332.124 243.761 295.329 213.332 290.145 210.116C288.889 209.337 292.489 219.322 292.889 224.373C293.289 229.424 290.145 231.26 290.145 231.26C290.145 231.26 288.905 225.913 277.949 224.996C266.992 224.078 261.758 225.363 261.758 225.363Z" fill="white"/>
<path fill-rule="evenodd" clip-rule="evenodd" d="M100.55 188.165C100.934 189.07 101.827 190.268 103.279 191.897C104.238 192.972 106.017 192.435 106.22 191.009C106.684 187.751 105.714 185.464 103.097 185.009C101.048 184.653 99.7254 186.221 100.55 188.165ZM104.543 190.77L104.283 190.476C101.839 187.689 101.347 186.423 102.806 186.676C104.315 186.938 104.894 188.303 104.543 190.77Z" fill="#00160A"/>
<path fill-rule="evenodd" clip-rule="evenodd" d="M109.001 193.709C108.049 193.831 107.273 194.948 107.059 196.182C106.813 197.601 107.341 198.941 108.695 199.699L109.629 200.216C110.529 200.709 111.338 201.132 112.125 201.51L112.49 201.683C113.076 201.953 113.551 202.143 113.911 202.242C114.281 202.344 114.561 202.373 114.86 202.263C115.499 202.03 115.611 201.427 115.39 200.913L115.32 200.757C115.232 200.551 115.014 200.031 114.888 199.741L114.861 199.679C114.519 198.897 114.171 198.177 113.787 197.49C112.366 194.945 110.838 193.472 109.001 193.709ZM112.482 198.634C112.712 199.066 112.932 199.517 113.147 199.993L113.218 200.154L113.01 200.056L112.858 199.984C111.85 199.5 110.785 198.927 109.521 198.221C108.839 197.839 108.596 197.222 108.727 196.47C108.783 196.142 108.912 195.826 109.073 195.594C109.122 195.523 109.171 195.466 109.214 195.424L109.262 195.383L109.216 195.387C110.097 195.273 111.207 196.343 112.308 198.314L112.482 198.634Z" fill="#00160A"/>
<path fill-rule="evenodd" clip-rule="evenodd" d="M123.482 208.305C123.331 207.65 114.896 192.285 120.819 192.768C126.742 193.25 125.331 210.664 125.125 210.664C124.883 210.664 123.59 208.776 123.482 208.305Z" fill="white"/>
<path fill-rule="evenodd" clip-rule="evenodd" d="M117.866 195.056C117.866 196.526 118.357 198.472 119.237 200.837C119.501 201.546 119.797 202.284 120.123 203.049L120.321 203.512C121.103 205.312 122.67 208.553 122.656 208.494C122.74 208.86 123.093 209.471 123.556 210.142L123.727 210.387C124.294 211.192 124.577 211.484 125.056 211.509L125.258 211.514C125.832 211.544 125.832 211.741 125.964 210.906L126.012 210.601C126.032 210.475 126.053 210.312 126.073 210.118L126.085 209.997C126.138 209.454 126.186 208.746 126.218 207.971C126.302 205.969 126.278 203.827 126.114 201.828L126.07 201.32C125.54 195.716 124.002 192.178 120.888 191.924C118.897 191.762 117.866 193.007 117.866 195.056ZM120.749 193.61C122.734 193.772 124.009 196.881 124.426 201.965C124.584 203.889 124.607 205.963 124.525 207.899L124.498 208.475L124.467 208.424C124.386 208.283 124.329 208.177 124.311 208.131L124.306 208.115C124.27 207.956 122.571 204.441 121.874 202.837C121.481 201.932 121.129 201.067 120.823 200.245C120.008 198.056 119.559 196.273 119.559 195.055C119.558 193.946 119.843 193.564 120.66 193.604L120.749 193.61Z" fill="#00160A"/>
<path fill-rule="evenodd" clip-rule="evenodd" d="M146.759 239.518C146.759 239.518 148.614 236.942 149.657 235.662C150.7 234.383 151.818 233.312 151.818 233.312C151.818 233.312 126.63 230.807 117.905 224.315C106.512 215.839 96.2917 201.781 85.9973 198.808C73.6905 195.253 69.1357 203.498 65.586 204.17C54.7724 206.218 34.9674 212.045 44.0235 229.647C46.8193 235.081 55.8763 237.608 62.2569 234.579C69.3791 231.197 78.15 222.914 87.3745 222.914C98.0416 222.914 99.8989 231.648 113.44 236.279C121.751 239.121 146.759 239.518 146.759 239.518Z" fill="white"/>
<path fill-rule="evenodd" clip-rule="evenodd" d="M176.751 301.803C176.751 301.803 182.9 308.512 185.448 312.828C187.996 317.144 187.104 319.485 190.641 321.48C195.955 324.477 201.432 323.721 203.869 322.128C206.307 320.534 204.02 316.455 198.911 316.455C197.655 316.455 196.176 313.57 195.461 311.663C194.745 309.755 195.073 305.059 195.073 305.059L176.751 301.803Z" fill="white"/>
<path fill-rule="evenodd" clip-rule="evenodd" d="M291.285 211.805C291.285 211.805 331.351 260.922 275.008 289.754C235.602 309.917 170.861 299.031 170.861 299.031C170.861 299.031 241.339 317.968 287.404 295.137C316.796 280.569 322.609 255.806 308.587 230.593C304.918 223.996 291.285 211.805 291.285 211.805Z" fill="#E7EAEE"/>
<path fill-rule="evenodd" clip-rule="evenodd" d="M288.932 209.356C289.437 208.687 290.224 208.679 290.811 209.043C292.702 210.217 296.124 213.057 299.416 216.389C303.984 221.013 308.063 226.253 311.191 231.901C319.755 247.364 318.99 263.553 308.121 279.415C298.515 293.436 279.72 301.898 253.338 305.689C230.263 309.004 203.55 308.545 181.415 303.861L180.305 303.623C167.637 300.859 158.298 297.348 151.233 291.921C141.966 284.803 137.643 274.843 139.124 261.449C141.367 241.174 149.387 229.906 161.476 225.959C165.97 224.492 170.784 224.131 175.751 224.621C179.158 224.957 182.018 225.59 185.046 226.483L185.585 226.644C188.874 227.642 191.674 228.742 195.992 230.655L199.184 232.084C205.799 235.047 209.627 236.453 214.582 237.451C220.817 238.708 227.683 238.856 236.012 237.718L237.248 237.542C244.047 236.552 247.697 235.652 249.867 234.268C252.408 232.648 253.315 230.023 252.952 226.387C252.787 224.733 252.376 222.989 251.727 220.955L251.548 220.406C251.269 219.575 250.451 217.241 250.3 216.733C250.114 216.105 250.028 215.667 250.059 215.26C250.135 214.239 251.031 213.608 252.033 213.91C257.331 215.502 261.136 220.127 263.472 227.624C263.68 228.29 263.308 228.998 262.642 229.205C261.976 229.413 261.268 229.041 261.06 228.375C259.281 222.668 256.684 218.956 253.282 217.142L253.059 217.027L253.979 219.708L254.004 219.784C256.339 229.738 254.604 237.542 238.898 239.954C238.033 240.087 220.665 241.581 213.454 239.797C202.529 237.095 187.024 227.011 177.729 226.644C168.434 226.278 166.39 227.011 162.261 228.36C151.18 231.978 141.964 243.697 140.104 263.051C139.122 273.272 144.645 283.627 153.702 290.006C176.751 306.241 230.202 307.014 252.979 303.742C278.729 300.042 298.018 291.304 307.141 277.989C317.428 262.975 317.109 247.802 308.981 233.124C305.973 227.693 302.034 222.633 297.618 218.163C295.607 216.127 293.55 214.287 291.88 212.945L291.599 212.721L291.844 213.683L292.626 216.687L292.912 217.813C292.956 217.99 292.999 218.164 293.041 218.335L293.19 218.953C293.718 221.172 294.039 222.895 294.148 224.273C294.45 228.083 293.347 230.852 290.782 232.35C290.18 232.702 289.406 232.499 289.054 231.897C288.702 231.295 288.905 230.522 289.507 230.17C291.135 229.219 291.861 227.397 291.63 224.473C291.533 223.25 291.23 221.631 290.728 219.522L290.587 218.935C290.525 218.684 290.461 218.427 290.394 218.158L289.293 213.906C289.129 213.263 289.006 212.756 288.907 212.316L288.878 212.185C288.71 211.419 288.622 210.871 288.617 210.458C288.612 210.036 288.673 209.699 288.932 209.356Z" fill="#00160A"/>
<path fill-rule="evenodd" clip-rule="evenodd" d="M261.657 223.972L262.56 223.82C268.519 222.837 273.328 222.482 277.004 222.76C280.881 223.054 284.991 224.102 289.335 225.898C289.908 226.135 290.18 226.791 289.943 227.364C289.706 227.937 289.049 228.209 288.476 227.972C284.342 226.262 280.462 225.273 276.834 224.998C273.188 224.722 268.25 225.115 262.038 226.184C261.427 226.289 260.846 225.879 260.741 225.268C260.636 224.657 261.046 224.077 261.657 223.972Z" fill="#00160A"/>
<path fill-rule="evenodd" clip-rule="evenodd" d="M268.839 218.936C271.529 218.384 273.985 218.669 276.177 219.801C278.275 220.884 280.093 222.247 281.627 223.887C281.947 224.23 281.929 224.769 281.586 225.089C281.242 225.41 280.704 225.391 280.383 225.048C278.985 223.552 277.323 222.307 275.396 221.312C273.562 220.365 271.502 220.126 269.181 220.602C268.721 220.696 268.271 220.4 268.177 219.94C268.082 219.48 268.379 219.03 268.839 218.936Z" fill="#00160A"/>
<path fill-rule="evenodd" clip-rule="evenodd" d="M274.277 214.483C274.519 214.08 275.041 213.948 275.444 214.19C277.602 215.479 279.387 216.922 280.799 218.52C282.224 220.134 283.393 222.196 284.314 224.703C284.475 225.144 284.249 225.632 283.808 225.794C283.367 225.956 282.878 225.729 282.716 225.288C281.865 222.97 280.799 221.09 279.523 219.645C278.233 218.185 276.584 216.852 274.571 215.649C274.168 215.408 274.036 214.886 274.277 214.483Z" fill="#00160A"/>
<path fill-rule="evenodd" clip-rule="evenodd" d="M249.627 234.689C249.983 234.181 250.683 234.058 251.191 234.414C251.699 234.769 240.858 250.201 240.858 253.195C240.858 256.442 242.453 258.615 246.704 262.042L248.505 263.473L249.029 263.893C251.664 266.021 253.198 267.513 254.502 269.409C256.326 272.058 257.184 275.015 256.965 278.522C256.696 282.848 255.39 285.838 252.802 289.288L252.568 289.597C252.277 289.972 250.996 291.607 250.645 292.086C249.393 293.795 248.804 295.081 248.697 296.592C248.225 303.247 251.358 311.284 258.162 320.672C258.526 321.174 258.414 321.876 257.912 322.239C257.41 322.603 256.707 322.491 256.344 321.989C249.258 312.213 245.941 303.704 246.457 296.433C246.594 294.504 247.297 292.906 248.666 290.991L248.833 290.76C249.236 290.21 250.705 288.336 250.829 288.174C253.294 284.942 256.858 280.213 254.004 271.215C252.568 266.684 238.927 263.473 238.478 253.829C238.373 251.557 242.162 245.339 249.627 234.689Z" fill="#00160A"/>
<path d="M253.756 281.348L252.189 281.365C242.912 281.484 237.27 281.951 235.527 282.698L235.463 282.726C232.9 283.901 230.884 285.494 229.343 287.403C228.146 288.886 227.3 290.475 226.748 292.062C226.583 292.535 226.455 292.977 226.36 293.379L226.295 293.665L228.978 297.102C229.005 297.136 229.03 297.171 229.052 297.208L229.078 297.244L229.163 297.368C229.742 298.208 230.4 299.029 231.247 299.987L231.637 300.421C232.332 301.18 234.545 303.564 235.297 304.422C236.906 306.258 238.26 308.024 239.558 310.052C241.536 313.143 243.28 316.713 244.846 321.036L244.959 321.352L245.071 321.676C245.208 322.076 245.342 322.487 245.487 322.951L246.148 325.118C247.124 328.313 247.807 329.78 248.888 330.669L249.07 330.815C250.487 331.918 251.807 332.19 255.479 332.306L256.552 332.336C261.433 332.47 263.979 328.596 261.186 325.78C260.31 324.897 257.422 324.213 252.697 323.926C252.078 323.889 252.659 322.295 252.697 321.676C252.734 321.057 253.266 320.586 253.885 320.624C254.433 320.657 254.958 320.695 255.463 320.738C249.205 311.673 246.15 303.948 246.636 297.102C246.773 295.173 246.565 294.418 247.934 292.503L248.196 292.145C248.694 291.48 249.982 289.838 250.098 289.687C251.151 288.305 251.886 287.173 252.475 285.937L252.59 285.689L252.629 285.6L252.695 285.455C253.004 284.747 253.333 283.526 253.667 281.814L253.756 281.348Z" fill="white"/>
<path fill-rule="evenodd" clip-rule="evenodd" d="M227.383 292.363C228.268 294.942 229.811 296.517 231.96 298.954L232.262 299.293C232.799 299.883 235.232 302.501 236.028 303.41C237.637 305.246 238.992 307.012 240.289 309.04C242.267 312.131 244.011 315.701 245.577 320.023C245.653 320.232 245.728 320.444 245.803 320.664L246.007 321.277C246.053 321.418 246.1 321.562 246.147 321.711L246.415 322.573C246.551 323.021 246.829 323.938 246.88 324.106L247.028 324.584C247.927 327.45 248.594 328.814 249.619 329.657L249.801 329.802C251.158 330.858 252.426 331.153 255.754 331.278L257.284 331.324C262.165 331.458 264.711 327.583 261.918 324.768C261.042 323.885 258.153 323.201 253.428 322.914C252.809 322.877 252.338 322.345 252.375 321.726C252.413 321.107 252.945 320.636 253.564 320.674L254.153 320.712C259.088 321.053 262.155 321.819 263.512 323.188C267.884 327.594 263.991 333.629 257.422 333.571L256.632 333.552C251.941 333.426 250.26 333.09 248.193 331.391C246.718 330.179 245.918 328.549 244.888 325.266L244.222 323.08L244.007 322.393C243.916 322.106 243.829 321.839 243.743 321.581L243.677 321.389C243.607 321.183 243.536 320.983 243.466 320.788C241.955 316.618 240.284 313.198 238.397 310.249C237.26 308.471 236.075 306.904 234.69 305.293L234.339 304.889C233.528 303.963 230.887 301.124 230.52 300.714C228.125 298.039 226.694 295.877 225.673 293.029L225.569 292.732C223.583 286.941 221.034 284.965 217.703 286.199C217.121 286.415 210.613 289.535 216.916 285.346C223.219 281.157 227.383 292.363 227.383 292.363Z" fill="#00160A"/>
<path fill-rule="evenodd" clip-rule="evenodd" d="M266.568 252.49C265.345 252.49 263.589 248.977 263.589 247.261C263.589 245.545 267.982 246.125 267.982 246.125C267.982 246.125 272.596 246.744 271.96 248.47C271.324 250.196 267.248 252.49 266.568 252.49Z" fill="#FFB61D"/>
<ellipse cx="259.335" cy="239.853" rx="2.42325" ry="4.52481" fill="#00160A"/>
<ellipse cx="282.51" cy="240.877" rx="2.65576" ry="4.45393" fill="#00160A"/>
<path fill-rule="evenodd" clip-rule="evenodd" d="M280.777 248.354C282.8 247.486 285.039 247.321 287.469 247.852C289.846 248.37 297.007 252.85 296.756 253.247C296.506 253.644 289.255 249.982 287.106 249.513C285.01 249.056 283.133 249.194 281.449 249.917C281.017 250.102 280.517 249.903 280.331 249.471C280.146 249.04 280.345 248.539 280.777 248.354Z" fill="#00160A"/>
<path fill-rule="evenodd" clip-rule="evenodd" d="M282.066 251.293C284.189 251.406 284.742 250.921 287.651 252.809C290.56 254.696 292.734 259.141 292.336 259.39C291.938 259.64 289.617 255.676 286.953 253.68C284.288 251.684 281.146 252.566 281.171 252.097C281.195 251.654 281.553 251.309 281.988 251.293L282.066 251.293Z" fill="#00160A"/>
<path fill-rule="evenodd" clip-rule="evenodd" d="M267.319 254.332C266.729 257.997 266.877 260.33 267.098 262.934C267.319 265.537 269.401 269.285 269.61 270.851C269.819 272.418 265.672 265.958 265.421 263.219C265.17 260.48 263.392 253.036 266.497 253.382C266.497 253.382 267.385 253.926 267.319 254.332Z" fill="#00160A"/>
<path fill-rule="evenodd" clip-rule="evenodd" d="M251.866 248.802C253.752 248.802 254.516 248.849 256.352 249.21C256.813 249.301 257.113 249.748 257.022 250.208C256.932 250.669 256.484 250.969 256.023 250.879C255.37 250.75 254.117 250.203 252.039 250.226C249.198 250.256 246.726 251.831 246.602 251.57C246.401 251.146 249.98 248.802 251.866 248.802Z" fill="#00160A"/>
<path fill-rule="evenodd" clip-rule="evenodd" d="M254.95 245.151C255.407 245.259 255.691 245.717 255.583 246.174C255.475 246.631 255.017 246.914 254.56 246.806C250.475 245.843 247.197 245.869 244.885 245.779C242.612 245.69 237.511 246.046 237.362 245.601C237.213 245.156 250.768 244.165 254.95 245.151Z" fill="#00160A"/>
<path fill-rule="evenodd" clip-rule="evenodd" d="M273.901 299.287C274.521 299.298 275.015 299.81 275.004 300.429C274.963 302.718 275.284 304.333 275.902 305.263C278.498 309.163 280.699 311.794 282.764 312.67C282.82 312.693 282.954 312.728 283.163 312.768L283.473 312.824C283.705 312.862 284.685 313.01 284.856 313.037C285.502 313.14 286.034 313.237 286.553 313.355C287.699 313.615 288.652 313.947 289.442 314.408C291.815 315.793 293.38 317.819 293.533 319.811C293.709 322.113 292.035 323.831 289.077 324.37C281.813 325.694 276.728 324.397 274.05 320.363C271.262 316.413 268.478 313.137 265.701 310.533C262.969 307.972 260.543 306.325 258.451 305.584C257.867 305.376 257.561 304.735 257.768 304.151C257.975 303.567 258.617 303.261 259.202 303.468C261.628 304.328 264.298 306.141 267.238 308.896C270.133 311.61 273.014 315.001 275.903 319.096C278.014 322.273 282.201 323.342 288.674 322.162C290.594 321.812 291.372 321.013 291.294 319.982C291.205 318.821 290.1 317.392 288.309 316.346C287.749 316.019 286.998 315.757 286.056 315.544C285.651 315.452 285.227 315.372 284.725 315.29L283.102 315.038L282.789 314.982C282.4 314.909 282.123 314.836 281.886 314.736C280.343 314.081 278.757 312.673 277.096 310.688C276.001 309.379 275.16 308.201 274.033 306.506C273.114 305.126 272.71 303.092 272.758 300.39C272.769 299.77 273.281 299.276 273.901 299.287Z" fill="#00160A"/>
<path fill-rule="evenodd" clip-rule="evenodd" d="M282.97 319.993C283.081 319.622 283.472 319.411 283.844 319.522C285 319.867 285.818 320.248 286.317 320.702C286.791 321.132 287.258 321.792 287.738 322.687C287.921 323.029 287.792 323.454 287.45 323.637C287.108 323.819 286.683 323.691 286.5 323.349C286.09 322.582 285.709 322.044 285.374 321.74C285.064 321.459 284.414 321.156 283.442 320.866C283.071 320.755 282.86 320.364 282.97 319.993Z" fill="#00160A"/>
<path fill-rule="evenodd" clip-rule="evenodd" d="M286.632 318.508C286.754 318.141 287.152 317.942 287.519 318.064C288.51 318.394 289.246 318.769 289.734 319.213C290.219 319.653 290.685 320.365 291.156 321.357C291.322 321.707 291.173 322.125 290.823 322.291C290.473 322.457 290.054 322.308 289.888 321.958C289.488 321.117 289.114 320.545 288.791 320.251C288.471 319.961 287.897 319.669 287.076 319.395C286.708 319.273 286.51 318.876 286.632 318.508Z" fill="#00160A"/>
<path fill-rule="evenodd" clip-rule="evenodd" d="M256.587 328.175C256.71 327.807 257.107 327.609 257.475 327.731C258.465 328.06 259.201 328.436 259.69 328.88C260.174 329.32 260.64 330.031 261.111 331.023C261.277 331.373 261.128 331.792 260.778 331.958C260.428 332.124 260.009 331.975 259.843 331.625C259.443 330.784 259.069 330.212 258.746 329.918C258.426 329.628 257.852 329.335 257.031 329.062C256.664 328.94 256.465 328.543 256.587 328.175Z" fill="#00160A"/>
<path fill-rule="evenodd" clip-rule="evenodd" d="M258.629 325.794C258.751 325.426 259.149 325.228 259.516 325.35C260.507 325.679 261.243 326.055 261.731 326.499C262.216 326.939 262.682 327.651 263.153 328.642C263.319 328.992 263.17 329.411 262.82 329.577C262.47 329.743 262.051 329.594 261.885 329.244C261.485 328.403 261.111 327.831 260.788 327.537C260.468 327.247 259.894 326.954 259.073 326.681C258.705 326.559 258.507 326.162 258.629 325.794Z" fill="#00160A"/>
<path fill-rule="evenodd" clip-rule="evenodd" d="M175.993 300.976C176.45 300.557 184.201 309.442 185.863 312.258C186.399 313.165 186.822 314.039 187.198 314.974C187.313 315.262 187.422 315.547 187.538 315.869L187.979 317.113C188.633 318.929 189.719 319.672 191.193 320.503C195.515 322.941 200.62 322.911 203.254 321.189C204.715 320.233 202.742 317.577 198.911 317.577C197.121 317.577 195.58 315.178 194.409 312.057C193.861 310.595 193.724 308.26 193.953 304.981C193.996 304.362 194.532 303.896 195.151 303.939C195.769 303.982 196.236 304.518 196.193 305.137C195.985 308.118 196.106 310.187 196.512 311.269L196.63 311.574C197.419 313.55 198.579 315.332 198.911 315.332C201.611 315.332 203.894 316.372 205.122 318.025C206.42 319.773 206.249 321.913 204.484 323.067C201.127 325.262 195.123 325.297 190.089 322.458C188.144 321.361 187.291 320.224 186.493 318.077L186.064 316.87C185.921 316.468 185.798 316.139 185.666 315.811C185.331 314.977 184.957 314.204 184.481 313.399C182.829 310.601 179.974 306.981 175.923 302.561C175.504 302.104 175.535 301.394 175.993 300.976Z" fill="#00160A"/>
<path fill-rule="evenodd" clip-rule="evenodd" d="M196.786 319.993C196.897 319.622 197.288 319.411 197.659 319.522C198.816 319.867 199.634 320.248 200.133 320.702C200.606 321.132 201.074 321.792 201.553 322.687C201.736 323.029 201.607 323.454 201.265 323.637C200.924 323.819 200.498 323.691 200.315 323.349C199.905 322.582 199.524 322.044 199.189 321.74C198.88 321.459 198.23 321.156 197.258 320.866C196.886 320.755 196.675 320.364 196.786 319.993Z" fill="#00160A"/>
<path fill-rule="evenodd" clip-rule="evenodd" d="M199.427 318.849C199.549 318.481 199.946 318.282 200.314 318.404C201.304 318.734 202.04 319.109 202.529 319.553C203.014 319.994 203.479 320.705 203.95 321.697C204.117 322.047 203.968 322.465 203.617 322.631C203.267 322.798 202.849 322.649 202.682 322.299C202.283 321.457 201.909 320.885 201.585 320.592C201.266 320.301 200.692 320.009 199.871 319.736C199.503 319.613 199.304 319.216 199.427 318.849Z" fill="#00160A"/>
<path fill-rule="evenodd" clip-rule="evenodd" d="M69.9828 200.138L69.7456 200.302C68.9942 200.826 67.5472 201.882 67.2286 202.106L67.1959 202.128C66.3703 202.697 65.8127 202.985 65.3769 203.067C57.678 204.525 51.0289 206.157 46.4774 209.601C40.1132 214.417 36.6754 222.839 41.0361 231.315C44.139 237.346 55.8697 238.854 62.7387 235.592C63.914 235.034 65.1658 234.336 66.6762 233.412L67.304 233.025C67.5213 232.889 67.7447 232.749 67.9826 232.599L69.6271 231.55L71.4252 230.399L72.0833 229.983C78.6946 225.831 82.895 224.036 87.3745 224.036C91.0772 224.036 93.6829 225.052 96.9564 227.453L97.2031 227.635C97.7716 228.06 101.46 231.001 102.706 231.907C105.933 234.256 109.12 235.988 113.076 237.341L113.424 237.457C119.214 239.329 130.29 240.379 146.741 240.64C147.109 240.646 147.456 240.472 147.67 240.174L148.311 239.289C149.233 238.026 149.972 237.052 150.527 236.371C151.194 235.553 151.883 234.804 152.595 234.122C153.287 233.459 152.883 232.29 151.929 232.195L150.939 232.094C134.882 230.425 124.072 227.505 118.575 223.415L118.174 223.115C115.243 220.899 112.443 218.399 108.175 214.306L102.66 209.011C100.479 206.934 99.713 206.259 98.1853 204.962L97.9461 204.759C94.3746 201.732 91.2759 199.656 88.2701 198.418C87.6104 198.147 86.9572 197.917 86.309 197.729C79.6157 195.796 74.8106 196.87 69.9828 200.138ZM85.6855 199.886C86.2531 200.05 86.829 200.252 87.4143 200.494C90.0779 201.591 92.8972 203.457 96.1653 206.194L97.4441 207.281C98.8519 208.49 99.8264 209.396 103.071 212.512L106.918 216.211C111.275 220.38 114.129 222.906 117.234 225.216L117.417 225.35C123.058 229.446 133.305 232.324 148.211 234.053L149.43 234.19L149.414 234.209C149.273 234.371 149.133 234.535 148.994 234.702L148.688 235.075L148.453 235.369C148.008 235.931 147.479 236.629 146.865 237.464L146.191 238.386L144.826 238.361C129.352 238.047 118.982 236.988 113.804 235.217C110.218 233.991 107.315 232.441 104.38 230.346L104.028 230.092C102.832 229.222 99.158 226.293 98.5472 225.837C94.799 223.038 91.7122 221.791 87.3745 221.791C82.346 221.791 77.8503 223.711 70.9 228.075L69.8318 228.752L67.5412 230.22C66.8614 230.654 66.3241 230.992 65.8018 231.315L65.2217 231.669C63.9001 232.47 62.7964 233.08 61.7751 233.565C55.952 236.33 47.5417 234.031 45.022 229.134C41.1682 221.643 42.5242 216.138 48.0314 211.971C52.2385 208.787 58.4096 206.671 65.795 205.273C66.568 205.126 67.313 204.757 68.285 204.103L68.47 203.977C68.7581 203.779 70.5055 202.502 71.1726 202.044L71.2421 201.997C75.554 199.078 79.6888 198.154 85.6855 199.886Z" fill="#00160A"/>
<path fill-rule="evenodd" clip-rule="evenodd" d="M354.608 230.389L354.502 230.646L354.289 231.177C351.527 238.18 349.089 248.91 346.961 263.392L346.837 264.243L346.829 264.202C346.005 259.345 344.964 255.572 343.697 252.869C341.496 248.173 338.36 246.4 334.654 248.085C322.627 253.554 323.344 275.79 336.081 314.868C336.25 315.388 336.735 315.739 337.282 315.739H351.109C351.48 315.739 351.833 315.576 352.073 315.293C369.339 294.938 377.071 281.254 375.181 273.735L375.12 273.497C373.4 267.029 369.098 265.643 362.964 269.119L362.746 269.243L363.052 268.54C373.693 243.9 375.646 228.729 368.455 222.816C363.176 218.475 358.359 221.347 354.608 230.389ZM367.055 223.79C373.385 228.995 371.135 246.041 359.128 272.461C358.578 273.669 372.73 264.201 372.73 274.35L372.775 274.543C374.137 280.789 367.106 293.401 351.602 311.929L350.521 313.213L337.281 314.156C337.281 314.156 319.431 255.246 335.699 250.383C340.38 248.983 343.834 255.779 345.547 274.159C345.687 275.664 347.875 275.696 348.059 274.196L348.209 272.985C350.67 253.326 353.59 239.433 356.941 231.355L357.133 230.899C360.263 223.574 363.518 220.881 367.055 223.79Z" fill="#00160A"/>
<path d="M366.85 224.766C373.18 229.971 370.615 245.91 358.608 272.329C358.059 273.537 359.507 274.666 360.545 273.839L360.967 273.507C367.789 268.199 371.287 268.605 372.731 274.351L372.776 274.544C374.138 280.79 367.107 293.402 351.603 311.93L350.522 313.214H338.2L337.758 311.838C326.141 275.446 325.683 254.939 335.7 250.384C340.321 248.283 343.835 255.78 345.548 274.16C345.688 275.665 347.876 275.697 348.06 274.197L348.21 272.986C350.671 253.327 353.591 239.434 356.942 231.356L357.134 230.9C360.264 223.575 363.313 221.857 366.85 224.766Z" fill="white"/>
<ellipse cx="333.932" cy="266.483" rx="4.49152" ry="4.48929" fill="#E7EAEE"/>
<ellipse cx="362.004" cy="237.302" rx="4.4915" ry="4.4893" fill="#E7EAEE"/>
<ellipse cx="364.25" cy="280.512" rx="4.49153" ry="4.48929" fill="#E7EAEE"/>
<path fill-rule="evenodd" clip-rule="evenodd" d="M126.187 318.859C118.259 318.984 90.9943 321.003 90.5233 319.992C89.9208 318.698 119.653 316.998 126.133 316.895L128.163 316.868C134.056 316.804 126.187 318.859 126.187 318.859ZM242.81 316.232C243.508 316.213 244.088 316.764 244.107 317.461C244.125 318.158 243.575 318.738 242.877 318.756L231.593 319.035C224.57 319.196 216.429 319.363 204.399 319.6C203.702 319.614 203.125 319.059 203.111 318.362C203.098 317.665 203.652 317.089 204.35 317.075L225.651 316.641C232.118 316.501 237.313 316.377 242.81 316.232ZM271.916 315.644C272.613 315.633 273.188 316.189 273.199 316.886C273.21 317.583 272.653 318.157 271.956 318.168L268.995 318.205L259.939 318.267C258.042 318.287 256.558 318.313 254.808 318.355C254.11 318.372 253.531 317.821 253.514 317.124C253.497 316.427 254.048 315.848 254.746 315.831L256.974 315.783C258.432 315.756 259.915 315.74 261.884 315.725L269.415 315.675C270.291 315.667 271.083 315.657 271.916 315.644ZM353.785 313.214C353.785 313.214 356.053 312.823 372.612 314.062C373.307 314.114 373.829 314.72 373.777 315.415C373.725 316.111 365.536 315.759 354.342 315.74L351.264 315.745C343.044 315.781 335.409 316.003 322.736 316.525L306.74 317.2C299.914 317.48 295.842 317.616 290.89 317.732C290.193 317.749 289.614 317.197 289.598 316.5C289.581 315.803 290.133 315.224 290.831 315.208L294.807 315.104C299.538 314.967 304.399 314.777 313.017 314.409L322.156 314.021C336.445 313.431 344.391 313.214 353.785 313.214Z" fill="#00160A"/>
<path d="M315.508 131.463L315.798 130.931C318.063 126.83 320.036 124.794 322.337 125.459C322.524 125.512 322.707 125.586 322.886 125.679C324.296 126.409 324.635 127.768 324.239 129.622L324.213 129.736L324.28 129.641C324.948 128.692 325.585 127.96 326.246 127.416L326.388 127.302C327.857 126.159 329.415 126.053 330.826 127.244C333.079 129.145 332.824 132.334 330.984 134.296L330.882 134.402C330.626 134.661 330.472 135.22 330.301 136.536L330.152 137.689C329.974 139.019 329.854 139.603 329.573 140.504C329.043 142.206 328.173 143.626 326.819 144.786C325.118 146.244 322.245 146.04 318.2 144.379C317.766 144.2 317.558 143.703 317.737 143.269C317.915 142.835 312.063 137.675 311.885 137.902L311.828 137.967C311.503 138.306 310.964 138.317 310.625 137.992L309.803 137.2C309.308 136.722 309.555 135.886 310.23 135.753C311.466 135.511 312.426 135.243 313.1 134.958C313.666 134.718 313.975 134.488 314.048 134.339C314.048 134.339 315.277 131.893 315.508 131.463Z" fill="white"/>
<path fill-rule="evenodd" clip-rule="evenodd" d="M309.436 135.838C308.003 135.731 307.159 136.82 307.159 138.139C307.159 142.705 314.623 148.95 319.486 148.95C320.912 148.95 322.078 147.931 321.664 146.373C321.508 145.786 321.149 145.265 320.56 144.623L320.43 144.483C319.768 143.78 319.083 143.153 317.548 141.832L315.197 139.818C314.62 139.319 313.702 138.523 313.425 138.286L313.091 138.003C312.448 137.461 311.951 137.066 311.508 136.753C310.723 136.199 310.116 135.889 309.436 135.838ZM308.86 138.139C308.86 136.353 311.419 138.822 314.499 141.463L316.545 143.212C319.05 145.371 322.107 147.616 320.559 147.781C315.654 148.303 308.86 141.802 308.86 138.139Z" fill="#00160A"/>
<path fill-rule="evenodd" clip-rule="evenodd" d="M309.829 123.873C310.181 123.561 311.937 122.336 311.03 123.945C310.123 125.554 304.88 127.595 310.123 135.734C310.323 136.044 310.08 136.665 309.642 136.836C309.205 137.008 308.711 136.793 308.54 136.356C307.214 132.981 306.601 130.538 306.718 128.949C306.842 127.266 307.899 125.583 309.829 123.873Z" fill="#00160A"/>
<path fill-rule="evenodd" clip-rule="evenodd" d="M303.278 126.706C303.37 126.246 304.279 125.106 304.279 126.039C304.279 126.973 302.943 129.34 304.824 132.008C306.704 134.676 309.939 136.485 309.662 136.865C309.386 137.244 308.854 137.328 308.474 137.051C305.751 135.069 304.099 133.519 303.476 132.303C302.826 131.035 302.782 129.179 303.278 126.706Z" fill="#00160A"/>
<path fill-rule="evenodd" clip-rule="evenodd" d="M315.508 131.463L315.798 130.931C318.063 126.83 320.036 124.794 322.337 125.459C322.524 125.512 322.707 125.586 322.886 125.679C324.296 126.409 324.635 127.768 324.239 129.622L324.213 129.736L324.28 129.641C324.948 128.692 325.585 127.96 326.246 127.416L326.388 127.302C327.857 126.159 329.415 126.053 330.826 127.244C333.079 129.145 332.824 132.334 330.984 134.296L330.882 134.402C330.626 134.661 330.472 135.22 330.301 136.536L330.152 137.689C329.974 139.019 329.854 139.603 329.573 140.504C329.043 142.206 328.173 143.626 326.819 144.786C325.118 146.244 322.245 146.04 318.2 144.379C317.766 144.2 317.558 143.703 317.737 143.269C317.915 142.835 324.041 146.392 326.388 143.626C328.735 140.861 328.988 135.14 329.665 133.406L329.829 133.104C331.127 131.793 331.17 129.76 329.728 128.543C328.984 127.916 328.31 127.962 327.433 128.644C326.633 129.266 325.8 130.334 324.839 131.888L324.558 132.351C324.086 133.148 323.139 134.8 323.013 135.01L322.84 135.297C322.258 136.248 321.515 136.844 321.404 136.87C321.294 136.896 321.138 136.807 321.099 136.002C321.086 135.737 321.153 135.471 321.294 135.108L321.351 134.968C321.521 134.553 322.461 132.601 322.526 132.461C322.811 131.847 323.04 131.311 323.23 130.806C323.995 128.769 322.857 127.579 322.103 127.189C322.022 127.147 321.943 127.115 321.865 127.093C320.697 126.755 319.071 128.489 317.172 131.963L316.761 132.731C316.457 133.311 316.159 133.907 315.574 135.092C315.149 135.954 314.013 136.571 312.12 137.069L312.016 137.095L312.025 137.12C312.109 137.381 312.063 137.675 311.885 137.902L311.828 137.967C311.503 138.306 310.964 138.317 310.625 137.992L309.803 137.2C309.308 136.722 309.555 135.886 310.23 135.753C311.466 135.511 312.426 135.243 313.1 134.958C313.666 134.718 313.975 134.488 314.048 134.339L314.844 132.74C315.088 132.257 315.277 131.893 315.508 131.463Z" fill="#00160A"/>
<ellipse cx="326.671" cy="134.064" rx="1.93297" ry="1.58396" fill="#FFB61D"/>
<ellipse cx="321.148" cy="129.648" rx="1.93298" ry="1.58395" fill="#FFB61D"/>
<path fill-rule="evenodd" clip-rule="evenodd" d="M309.266 140.757C308.996 140.518 308.659 140.087 308.362 139.62L307.979 139.79L307.526 139.984C307.435 140.025 307.377 140.058 307.359 140.084C307.306 140.181 307.186 140.218 307.088 140.167C306.993 140.115 306.954 139.995 307.006 139.898C307.042 139.806 307.296 139.517 307.768 139.235C307.854 139.184 307.948 139.136 308.05 139.09C307.876 138.764 307.739 138.45 307.675 138.198C307.578 137.826 307.655 137.562 307.783 137.47C307.908 137.378 308.222 137.361 308.699 137.758C308.788 137.825 308.801 137.95 308.735 138.037C308.668 138.123 308.543 138.139 308.455 138.072C308.365 138.005 308.273 137.967 308.199 137.94L308.235 138.082C308.249 138.133 308.266 138.186 308.291 138.238C308.376 138.425 308.485 138.639 308.607 138.858C308.981 138.717 309.406 138.589 309.866 138.528C310.089 138.498 310.318 138.492 310.555 138.494C310.691 138.485 310.809 138.588 310.818 138.725C310.827 138.861 310.723 138.979 310.587 138.988C310.035 139.041 309.524 139.181 309.073 139.338L308.925 139.391C309.169 139.772 309.43 140.118 309.654 140.313C309.776 140.421 309.788 140.608 309.682 140.73C309.573 140.853 309.387 140.865 309.266 140.757Z" fill="#FFB61D"/>
<path fill-rule="evenodd" clip-rule="evenodd" d="M179.394 292.624C177.997 299.202 171.256 301.067 171.329 306.362C171.367 309.101 172.123 311.373 172.745 313.12C174.008 316.673 177.299 320.332 178.824 323.72C180.126 326.615 186.663 324.656 187.185 329.156C187.47 331.607 182.845 333.019 181.587 333.115C179.781 333.251 177.491 332.631 174.718 331.254C171.345 329.617 168.638 328.326 166.678 325.966C166.296 325.506 166.056 324.207 165.633 322.164C165.171 319.928 163.591 314.245 159.463 305.069C158.873 303.759 156.616 298.395 154.106 292.909C152.035 288.383 160.595 279.314 164.391 279.631C173.714 280.41 180.38 287.978 179.394 292.624Z" fill="white"/>
<path fill-rule="evenodd" clip-rule="evenodd" d="M172.857 331.352C170.536 329.971 168.627 328.379 167.13 326.577C166.748 326.116 166.467 324.421 166.044 322.378C165.823 321.307 157.765 301.986 155.107 294.713C154.611 293.356 155.815 294.306 156.098 294.713C157.64 296.934 167.13 311.584 171.664 325.157" fill="#E7EAEE"/>
<path fill-rule="evenodd" clip-rule="evenodd" d="M174.666 330.774L175.01 330.944C177.619 332.239 179.724 332.81 181.295 332.691C182.983 332.563 185.738 331.041 185.86 329.746C186.056 327.667 185.492 327.077 182.709 326.026C181.902 325.721 179.72 325.788 176.356 326.297C175.743 326.39 175.17 325.968 175.078 325.355C174.985 324.743 175.407 324.17 176.02 324.078L176.573 323.996C180.013 323.504 182.268 323.46 183.503 323.926L183.869 324.068C187.209 325.388 188.397 326.753 188.096 329.956C187.841 332.67 184.114 334.728 181.465 334.929C179.489 335.078 177.108 334.456 174.302 333.097L174.02 332.959C170.51 331.255 167.716 329.16 165.648 326.67C165.376 326.342 165.202 325.905 165.023 325.235L164.981 325.076C164.915 324.816 164.849 324.527 164.772 324.166L164.327 321.982L164.258 321.664C163.526 318.386 161.405 312.336 158.191 305.149L157.701 304.067C157.399 303.409 153.088 296.428 152.767 294.792C151.564 288.674 156.483 285.644 156.483 285.644C156.483 285.644 153.931 291.024 154.65 293.669C155.209 295.725 159.926 302.8 161.604 308.225C163.341 313.838 165.158 319.828 167.813 324.725C169.817 328.422 171.252 330.097 174.666 330.774Z" fill="#00160A"/>
<path fill-rule="evenodd" clip-rule="evenodd" d="M180.111 329.517C180.222 329.145 180.613 328.934 180.985 329.045C182.141 329.39 182.959 329.772 183.458 330.225C183.932 330.655 184.399 331.315 184.878 332.211C185.061 332.553 184.932 332.978 184.591 333.16C184.249 333.343 183.824 333.214 183.641 332.873C183.231 332.106 182.849 331.568 182.514 331.264C182.205 330.983 181.555 330.68 180.583 330.39C180.211 330.279 180 329.888 180.111 329.517Z" fill="#00160A"/>
</svg>
